<svg width="124" height="37" viewBox="0 0 124 37" fill="none" xmlns="http://www.w3.org/2000/svg">
<path d="M22.01 0.169898C22.3975 0.698469 33.325 11.723 33.325 20.5577C33.325 29.4679 25.885 36.7923 16.6625 36.7923C7.5175 36.7923 0 29.4679 0 20.5577C0 16.8577 1.9375 12.327 5.6575 7.04133C8.4475 3.19031 11.16 0.396429 11.315 0.245408C11.5475 -0.0566326 12.0125 -0.0566326 12.3225 0.245408C12.6325 0.471939 12.6325 0.925 12.3225 1.22704L12.2972 1.25261C12.0127 1.54073 9.38181 4.23486 6.82 7.87194C3.255 12.8556 1.395 17.2352 1.395 20.6332C1.395 28.8638 8.2925 35.5087 16.6625 35.5087C25.0325 35.5087 31.93 28.7128 31.93 20.5577C31.93 17.1597 30.07 12.7801 26.505 7.79643C23.7925 4.02092 21.0025 1.22704 21.0025 1.15153C20.77 0.84949 20.77 0.471939 21.0025 0.169898C21.3125 -0.0566327 21.7 -0.0566327 22.01 0.169898ZM19.53 2.35969L19.5602 2.38916L19.6654 2.49243C20.983 3.79219 30.4575 13.3537 30.4575 20.1801C30.38 27.5801 24.2575 33.5454 16.6625 33.5454C9.0675 33.5454 2.945 27.5801 2.945 20.1801C2.945 13.4694 11.9654 4.24768 13.51 2.71481L13.7175 2.51071C14.0275 2.28418 14.415 2.28418 14.725 2.51071C14.9575 2.81276 14.9575 3.19031 14.725 3.49235C14.57 3.56786 4.34 13.5352 4.34 20.1801C4.34 26.825 9.8425 32.1862 16.6625 32.1862C23.4825 32.1862 28.985 26.825 28.985 20.1801C28.985 17.4617 27.2025 13.6862 23.7925 9.30663C21.3125 6.10855 18.8325 3.64624 18.5493 3.36762L18.5225 3.34133C18.2125 3.1148 18.2125 2.66173 18.5225 2.35969C18.755 2.05765 19.22 2.05765 19.53 2.35969ZM16.5075 4.24745L16.9725 4.77602L17.0007 4.8037L17.104 4.9067C18.3284 6.13451 26.97 15.0246 26.97 20.1801C27.0475 25.7679 22.3975 30.2985 16.6625 30.2985C10.9275 30.2985 6.2775 25.7679 6.2775 20.1801C6.2775 14.9308 15.0194 5.81 15.9711 4.84739L16.0425 4.77602L16.5075 4.24745ZM93.5425 12.6291V21.6148C93.5425 23.0495 93.62 23.9556 93.6975 24.4087C93.8525 25.0883 94.1625 25.6168 94.7825 26.0699C95.325 26.4474 96.1 26.674 97.03 26.674C98.0375 26.674 98.735 26.4474 99.2 26.0699C99.665 25.6923 99.975 25.2393 100.13 24.6352C100.207 24.1066 100.285 23.125 100.285 21.8413V12.6291H103.695V21.3128C103.695 23.276 103.618 24.7107 103.385 25.5413C103.23 26.3719 102.842 27.0515 102.378 27.6556C101.912 28.1842 101.215 28.6372 100.362 29.0148C99.51 29.3923 98.425 29.5434 97.1075 29.5434C95.48 29.5434 94.24 29.3923 93.3875 29.0148C92.535 28.6372 91.915 28.1842 91.3725 27.5801C90.9075 26.976 90.5975 26.3719 90.4425 25.7679C90.21 24.7862 90.1325 23.427 90.1325 21.5393V12.6291H93.5425ZM47.275 12.4026C49.445 12.4026 50.995 12.8556 52.08 13.7617C53.165 14.6679 53.7075 15.876 53.785 17.3862L50.375 17.5372C50.22 16.7066 49.91 16.1026 49.445 15.725C48.98 15.3474 48.2825 15.1209 47.275 15.1209C46.2675 15.1209 45.4925 15.3474 44.95 15.725C44.5625 15.9515 44.4075 16.3291 44.4075 16.7821C44.4075 17.1597 44.5625 17.5372 44.95 17.7638C45.415 18.1413 46.4225 18.5189 48.1275 18.8964C49.8325 19.274 50.995 19.6515 51.8475 20.1046C52.6225 20.4821 53.2425 21.0862 53.7075 21.7658C54.1725 22.4454 54.405 23.3515 54.405 24.4087C54.405 25.3903 54.1725 26.2209 53.63 27.0515C53.0875 27.8821 52.3125 28.4862 51.305 28.8638C50.2975 29.2413 49.0575 29.4679 47.585 29.4679C45.415 29.4679 43.7875 29.0148 42.625 28.0332C41.4625 27.0515 40.765 25.6923 40.5325 23.8046L43.865 23.5026C44.0975 24.5597 44.485 25.3903 45.105 25.9189C45.725 26.4475 46.5775 26.674 47.585 26.674C48.67 26.674 49.5225 26.4474 50.065 25.9944C50.6075 25.5413 50.9175 25.0128 50.9175 24.4087C50.9175 24.0311 50.7625 23.6536 50.53 23.427C50.2975 23.125 49.91 22.8985 49.29 22.7474C48.9025 22.5964 47.9725 22.3699 46.5775 21.9923C44.7175 21.5393 43.4775 21.0107 42.7025 20.3311C41.695 19.425 41.1525 18.2923 41.1525 17.0087C41.1525 16.1781 41.385 15.3474 41.85 14.6679C42.315 13.9883 43.0125 13.3842 43.9425 13.0066C44.8725 12.6291 45.9575 12.4026 47.275 12.4026ZM69.75 12.6291V15.423H60.605V19.123H69.13V21.9168H60.605V26.4475H70.06V29.2413H57.195V12.6291H69.75ZM80.29 12.6291C82.0725 12.6291 83.39 12.7801 84.2425 13.0821C85.095 13.3842 85.715 13.9128 86.18 14.6679C86.645 15.423 86.955 16.3291 86.955 17.3107C86.955 18.5189 86.5675 19.576 85.7925 20.4066C85.0175 21.2372 83.9325 21.6903 82.46 21.9168C83.235 22.3699 83.7775 22.823 84.32 23.276C84.785 23.8046 85.4825 24.7107 86.2575 25.9944L88.35 29.2413H84.2425L81.7625 25.6168C80.91 24.3332 80.29 23.5026 79.98 23.2005C79.67 22.8985 79.2825 22.6719 78.9725 22.5209C78.6334 22.3888 78.1757 22.3723 77.5474 22.3702L76.57 22.3699V29.2413H73.0825V12.6291H80.29ZM112.375 12.6291L115.475 23.8801L118.497 12.6291H123.612V29.1658H120.435V16.1781L117.103 29.2413H113.77L110.438 16.1781V29.2413H107.26V12.6291H112.375ZM16.585 6.21071C15.7325 7.11684 14.0275 8.92908 12.3225 11.1944C9.3 15.1209 7.6725 18.2168 7.6725 20.1801C7.6725 25.0128 11.7025 28.9393 16.6625 28.9393C21.6225 28.9393 25.6525 25.0128 25.6525 20.1801C25.6525 18.2168 24.025 15.1209 20.925 11.1944C19.22 9.00459 17.4375 7.11684 16.585 6.21071ZM79.1275 15.423H76.415L76.4925 19.6515H79.05C80.6775 19.6515 81.685 19.576 82.15 19.425C82.5375 19.274 82.8475 19.0474 83.08 18.7454C83.3125 18.4434 83.39 17.9903 83.39 17.5372C83.39 17.0087 83.235 16.5556 82.925 16.1781C82.615 15.8005 82.2275 15.6495 81.6075 15.4985C81.2975 15.4985 80.5225 15.423 79.1275 15.423Z" fill="#1E1E1E"/>
</svg>
