<svg width="124" height="24" viewBox="0 0 124 24" fill="none" xmlns="http://www.w3.org/2000/svg">
<path d="M29.0797 18.0264C29.5102 18.0264 29.7255 18.5663 29.4196 18.8773L24.7574 23.7066C24.5761 23.8944 24.3325 24 24.0776 24H0.483503C0.0529738 24 -0.162291 23.4601 0.143612 23.1491L4.80579 18.3198C4.98706 18.132 5.23065 18.0264 5.48557 18.0264H29.0797ZM91.7273 6.09682L91.9007 6.11174C92.9288 6.24567 93.727 7.16819 93.727 8.28557V17.5276C93.727 17.7447 93.5627 17.9149 93.3588 17.9149H91.9086C91.7047 17.9149 91.5404 17.7389 91.5404 17.5276H91.5574V13.7252C91.5574 13.5081 91.3931 13.3379 91.1892 13.3379H84.6519C84.448 13.3379 84.2837 13.5139 84.2837 13.7252V17.5335C84.2837 17.7506 84.1194 17.9208 83.9155 17.9208H82.4653C82.2613 17.9208 82.0971 17.7447 82.0971 17.5335V8.29144C82.0971 7.07677 83.0318 6.09682 84.1874 6.09682H91.7273ZM99.1879 6.08509C99.2956 6.08509 99.3975 6.13203 99.4655 6.22005L105.969 14.2533C106.19 14.5232 106.615 14.3589 106.615 14.001V6.47237C106.615 6.26112 106.779 6.08509 106.983 6.08509H108.433C108.637 6.08509 108.801 6.25526 108.801 6.47237V17.5276C108.801 17.7389 108.637 17.9149 108.433 17.9149H106.632C106.626 17.9149 106.62 17.909 106.62 17.9032C106.62 17.8973 106.62 17.8973 106.615 17.8914L99.998 9.91687C99.7771 9.64694 99.3522 9.81712 99.3522 10.1692V17.5335C99.3522 17.7447 99.1879 17.9208 98.984 17.9208H97.5225C97.3185 17.9208 97.1542 17.7506 97.1542 17.5335V6.47237C97.1542 6.26112 97.3185 6.08509 97.5225 6.08509H99.1879ZM70.6314 6.07922C70.8353 6.07922 70.9996 6.25526 70.9996 6.4665V15.5619C70.9996 15.779 71.1639 15.9491 71.3678 15.9491H78.8341C79.1627 15.9491 79.327 16.354 79.106 16.6005L78.0354 17.7917C77.9617 17.868 77.8654 17.9149 77.7635 17.9149H69.2095C69.0056 17.9149 68.8413 17.7389 68.8413 17.5276V6.47237C68.8413 6.25526 69.0056 6.08509 69.2095 6.08509V6.07922H70.6314ZM121.978 6.09095C123.099 6.14377 124 7.10611 124 8.27971V17.5218C124 17.733 123.836 17.909 123.632 17.909H122.159V17.9149C121.955 17.9149 121.791 17.7447 121.791 17.5276V13.7193C121.791 13.5081 121.626 13.332 121.422 13.332H114.812C114.608 13.332 114.443 13.5022 114.443 13.7193V17.5276C114.443 17.7389 114.279 17.9149 114.075 17.9149H112.614C112.41 17.9149 112.245 17.7447 112.245 17.5276V8.28557C112.245 7.07677 113.191 6.09095 114.358 6.09095H121.978ZM49.1163 6.09095C49.4505 6.09095 49.6148 6.51932 49.3655 6.7599L47.785 8.27971C47.7171 8.34425 47.6264 8.37946 47.5358 8.37946H41.9106C41.2535 8.37946 40.721 8.93105 40.721 9.61761C40.721 10.2983 41.2535 10.8557 41.9106 10.8557H46.941C46.9466 10.8557 46.9466 10.8557 46.9466 10.8616C46.9466 10.8675 46.9523 10.8675 46.9523 10.8675C48.6971 11.0142 50.0623 12.534 50.0623 14.3824C50.0623 16.3306 48.5441 17.909 46.6747 17.909C46.5841 17.909 46.4991 17.9032 46.4085 17.8973C46.4085 17.8973 46.4028 17.8973 46.4028 17.9032C46.4028 17.909 46.3971 17.909 46.3971 17.909H39.3444C39.0045 17.909 38.8459 17.469 39.1065 17.2342L40.8059 15.7144C40.8683 15.6557 40.9532 15.6205 41.0439 15.6205H46.6804C47.3375 15.6205 47.87 15.0689 47.87 14.3824C47.87 13.7017 47.3375 13.1443 46.6804 13.1443H41.9163C40.0468 13.1443 38.5287 11.5658 38.5287 9.61761C38.5287 7.66944 40.0468 6.09095 41.9163 6.09095H49.1163ZM55.5119 6.08509V6.09095H63.2784L63.4492 6.10549C64.4023 6.22725 65.1584 7.0122 65.2799 7.99862L65.2951 8.18582V15.7086C65.2951 16.8204 64.4867 17.7426 63.4479 17.8815L63.2728 17.8973H55.5119L55.3359 17.8824C54.3508 17.7559 53.5795 16.926 53.4969 15.8929L53.4895 15.7086V8.17995L53.5056 7.99337C53.6388 6.94902 54.4793 6.13496 55.5119 6.08509ZM61.8282 8.18582H56.9621C56.3224 8.2132 55.801 8.71597 55.7113 9.36493L55.6988 9.50611V14.2416C55.6988 14.9316 56.1874 15.5093 56.8236 15.6071L56.9621 15.6205H61.8282C62.5307 15.5912 63.0915 14.9809 63.0915 14.2416V9.50611C63.0632 8.79022 62.5137 8.22103 61.8282 8.18582ZM24.0776 8.95452C24.3325 8.95452 24.5761 9.06015 24.7574 9.24792L29.4196 14.0714C29.7255 14.3824 29.5102 14.9222 29.0797 14.9222H5.48557C5.23065 14.9222 4.98706 14.8166 4.80579 14.6289L0.143612 9.80538C-0.162291 9.49438 0.0529738 8.95452 0.483503 8.95452H24.0776ZM90.2715 7.99218H85.547C84.8445 7.99218 84.2724 8.59071 84.2724 9.33007V11.2313C84.2724 11.4484 84.4366 11.6186 84.6406 11.6186H91.1778C91.3818 11.6186 91.546 11.4425 91.546 11.2313V9.33007C91.546 8.59071 90.9739 7.99218 90.2715 7.99218ZM120.505 7.99218H115.729C115.016 7.99218 114.443 8.59071 114.443 9.33007V11.2313C114.443 11.4425 114.608 11.6186 114.812 11.6186H121.422C121.626 11.6186 121.791 11.4484 121.791 11.2313V9.33007C121.791 8.59071 121.213 7.99218 120.505 7.99218ZM29.0797 0C29.5102 0 29.7255 0.539853 29.4196 0.850856L24.7574 5.67433C24.5761 5.8621 24.3325 5.96773 24.0776 5.96773H0.483503C0.0529738 5.96773 -0.162291 5.42787 0.143612 5.11687L4.80579 0.293399C4.98706 0.105623 5.23065 0 5.48557 0H29.0797Z" fill="#1E1E1E"/>
</svg>
