<svg width="124" height="40" viewBox="0 0 124 40" fill="none" xmlns="http://www.w3.org/2000/svg">
<path d="M22.71 29.1313H12.4902V39.4043H22.71V29.1313Z" fill="#1E1E1E"/>
<path d="M31.9108 14.9775H12.4902V25.2505H31.9108H35.4279V14.9775H31.9108Z" fill="#1E1E1E"/>
<path d="M44.5136 0.595459H12.7188V10.8684H44.5136V0.595459Z" fill="#1E1E1E"/>
<path d="M10.2198 14.9775H0V25.2505H10.2198V14.9775Z" fill="#1E1E1E"/>
<path d="M61.7573 15.2634V20.5715H72.4182V25.8796H61.7573V34.1539H54.959V9.95532H73.8088V15.2634H61.7573Z" fill="#1E1E1E"/>
<path d="M83.5314 15.3845H76.0811V9.95532H97.6561V15.3845H90.2057V34.1539H83.5314V15.3845Z" fill="#1E1E1E"/>
<path d="M115.783 34.1539L110.822 26.7082L105.861 34.1539H98.1094L106.946 21.8995L98.5745 9.95532H106.326L111.132 16.9357L115.938 9.95532H123.379L115.008 21.5893L123.999 33.9988H115.783V34.1539Z" fill="#1E1E1E"/>
</svg>
