<svg width="440" height="187" viewBox="0 0 440 187" fill="none" xmlns="http://www.w3.org/2000/svg">
<path d="M0.5 93.5H174.511V0.5H0.5V93.5Z" stroke="white"/>
<path d="M348.535 186.5L348.535 93.5L261.535 93.5L261.535 186.5L348.535 186.5Z" stroke="white"/>
<path d="M261.523 93.5L261.523 0.499992L174.523 0.499996L174.523 93.5L261.523 93.5Z" stroke="white"/>
<path d="M174.523 186.5H261.523V0.5H174.523V186.5Z" stroke="white"/>
<path d="M87.5117 186.5H174.512V0.5H87.5117V186.5Z" stroke="white"/>
<path d="M348.547 93.5H439.502V1.5H348.547V93.5Z" stroke="white"/>
<path d="M174.81 93.5H261.237L218.023 185.821L174.81 93.5Z" stroke="white"/>
<path d="M348.85 1.5H439.195L394.022 92.8718L348.85 1.5Z" stroke="white"/>
</svg>
