<svg width="536" height="562" viewBox="0 0 536 562" fill="none" xmlns="http://www.w3.org/2000/svg">
<path d="M535.5 187.5H447.5V466.5H535.5V187.5Z" stroke="white"/>
<path d="M447.5 187.5H359.5V561.5H447.5V187.5Z" stroke="white"/>
<path d="M183.5 1.5L183.5 94.5L271.5 94.5L271.5 1.5L183.5 1.5Z" stroke="white"/>
<path d="M0.5 94.5L0.500004 187.5L359.5 187.5L359.5 94.5L0.5 94.5Z" stroke="white"/>
<path d="M0.5 280.5L0.500004 373.5L535.5 373.5L535.5 280.5L0.5 280.5Z" stroke="white"/>
<path d="M91.5 373.5L91.5 466.5L535.5 466.5L535.5 373.5L91.5 373.5Z" stroke="white"/>
<path d="M271.5 466.5L271.5 561.5L447.5 561.5L447.5 466.5L271.5 466.5Z" stroke="white"/>
<path d="M0.5 466.5L0.500004 561.5L182.5 561.5L182.5 466.5L0.5 466.5Z" stroke="white"/>
<path d="M359.5 1.5H271.5V561.5H359.5V1.5Z" stroke="white"/>
<path d="M447.5 1.5H359.5V94.5H447.5V1.5Z" stroke="white"/>
<path d="M182.5 94.5H91.5V561.5H182.5V94.5Z" stroke="white"/>
<path d="M447.314 94.75L403.5 1.17908L359.686 94.75H447.314Z" stroke="white"/>
<path d="M180.309 280.25L136.5 188.164L92.6913 280.25H180.309Z" stroke="white"/>
</svg>
