<svg width="543" height="561" viewBox="0 0 536 561" fill="none" xmlns="http://www.w3.org/2000/svg">
<path d="M0.5 186.5H88.5V465.5H0.5V186.5Z" stroke="#3F9A70"/>
<path d="M88.5 186.5H176.5V560.5H88.5V186.5Z" stroke="#3F9A70"/>
<path d="M535.5 0.5L535.5 93.5L264.5 93.5L264.5 0.499988L535.5 0.5Z" stroke="#3F9A70"/>
<path d="M535.5 93.5L535.5 186.5L176.5 186.5L176.5 93.5L535.5 93.5Z" stroke="#3F9A70"/>
<path d="M535.5 279.5L535.5 372.5L0.499996 372.5L0.5 279.5L535.5 279.5Z" stroke="#3F9A70"/>
<path d="M444.5 372.5L444.5 465.5L0.499996 465.5L0.5 372.5L444.5 372.5Z" stroke="#3F9A70"/>
<path d="M264.5 465.5L264.5 560.5L88.5 560.5L88.5 465.5L264.5 465.5Z" stroke="#3F9A70"/>
<path d="M535.5 465.5L535.5 560.5L353.5 560.5L353.5 465.5L535.5 465.5Z" stroke="#3F9A70"/>
<path d="M176.5 0.5H264.5V560.5H176.5V0.5Z" stroke="#3F9A70"/>
<path d="M88.5 0.5H176.5V93.5H88.5V0.5Z" stroke="#3F9A70"/>
<path d="M353.5 0.5H444.5V560.5H353.5V0.5Z" stroke="#3F9A70"/>
<path d="M444.5 0.5H535.5V372.5H444.5V0.5Z" stroke="#3F9A70"/>
<path d="M353.899 94L399 1.14443L444.101 94H353.899Z" stroke="#3F9A70"/>
<path d="M88.621 372.25L132 280.173L175.379 372.25H88.621Z" stroke="#3F9A70"/>
<path d="M535.106 465.5L490 559.841L444.894 465.5L535.106 465.5Z" stroke="#3F9A70"/>
<line x1="535.357" y1="186.35" x2="444.357" y2="279.35" stroke="#3F9A70"/>
<line x1="176.367" y1="465.66" x2="264.367" y2="560.66" stroke="#3F9A70"/>
</svg>
