<svg width="1112" height="737" viewBox="0 0 1112 737" fill="none" xmlns="http://www.w3.org/2000/svg">
<rect x="0.5" y="276.5" width="92" height="276" stroke="#3F9A70"/>
<rect x="92.5" y="0.5" width="93" height="552" stroke="#3F9A70"/>
<rect x="185.5" y="184.5" width="93" height="368" stroke="#3F9A70"/>
<rect x="278.5" y="0.5" width="92" height="368" stroke="#3F9A70"/>
<rect x="370.5" y="0.5" width="92" height="552" stroke="#3F9A70"/>
<rect x="462.5" y="0.5" width="93" height="552" stroke="#3F9A70"/>
<rect x="555.5" y="0.5" width="93" height="552" stroke="#3F9A70"/>
<rect x="648.5" y="92.5" width="92" height="460" stroke="#3F9A70"/>
<rect x="740.5" y="0.5" width="93" height="552" stroke="#3F9A70"/>
<rect x="833.5" y="0.5" width="94" height="460" stroke="#3F9A70"/>
<rect x="927.5" y="0.5" width="93" height="552" stroke="#3F9A70"/>
<rect x="1020.5" y="92.5" width="91" height="460" stroke="#3F9A70"/>
<rect x="0.5" y="0.5" width="92" height="92" stroke="#3F9A70"/>
<rect x="92.5" y="0.5" width="93" height="92" stroke="#3F9A70"/>
<rect x="278.5" y="0.5" width="92" height="92" stroke="#3F9A70"/>
<rect x="370.5" y="0.5" width="92" height="92" stroke="#3F9A70"/>
<rect x="462.5" y="0.5" width="93" height="92" stroke="#3F9A70"/>
<rect x="555.5" y="0.5" width="93" height="92" stroke="#3F9A70"/>
<rect x="740.5" y="0.5" width="93" height="92" stroke="#3F9A70"/>
<rect x="833.5" y="0.5" width="94" height="92" stroke="#3F9A70"/>
<rect x="927.5" y="0.5" width="93" height="92" stroke="#3F9A70"/>
<rect x="92.5" y="92.5" width="93" height="92" stroke="#3F9A70"/>
<rect x="185.5" y="92.5" width="93" height="92" stroke="#3F9A70"/>
<rect x="278.5" y="92.5" width="92" height="92" stroke="#3F9A70"/>
<rect x="370.5" y="92.5" width="92" height="92" stroke="#3F9A70"/>
<rect x="462.5" y="92.5" width="93" height="92" stroke="#3F9A70"/>
<rect x="555.5" y="92.5" width="93" height="92" stroke="#3F9A70"/>
<rect x="648.5" y="92.5" width="92" height="92" stroke="#3F9A70"/>
<rect x="740.5" y="92.5" width="93" height="92" stroke="#3F9A70"/>
<rect x="833.5" y="92.5" width="94" height="92" stroke="#3F9A70"/>
<rect x="927.5" y="92.5" width="93" height="92" stroke="#3F9A70"/>
<rect x="1020.5" y="92.5" width="91" height="92" stroke="#3F9A70"/>
<rect x="92.5" y="184.5" width="93" height="92" stroke="#3F9A70"/>
<rect x="185.5" y="184.5" width="93" height="92" stroke="#3F9A70"/>
<rect x="278.5" y="184.5" width="92" height="92" stroke="#3F9A70"/>
<rect x="370.5" y="184.5" width="92" height="92" stroke="#3F9A70"/>
<rect x="462.5" y="184.5" width="93" height="92" stroke="#3F9A70"/>
<rect x="555.5" y="184.5" width="93" height="92" stroke="#3F9A70"/>
<rect x="648.5" y="184.5" width="92" height="92" stroke="#3F9A70"/>
<rect x="740.5" y="184.5" width="93" height="92" stroke="#3F9A70"/>
<rect x="833.5" y="184.5" width="94" height="92" stroke="#3F9A70"/>
<rect x="927.5" y="184.5" width="93" height="92" stroke="#3F9A70"/>
<rect x="1020.5" y="184.5" width="91" height="92" stroke="#3F9A70"/>
<rect x="0.5" y="276.5" width="92" height="92" stroke="#3F9A70"/>
<rect x="92.5" y="276.5" width="93" height="92" stroke="#3F9A70"/>
<rect x="185.5" y="276.5" width="93" height="92" stroke="#3F9A70"/>
<rect x="278.5" y="276.5" width="92" height="92" stroke="#3F9A70"/>
<rect x="370.5" y="276.5" width="92" height="92" stroke="#3F9A70"/>
<rect x="462.5" y="276.5" width="93" height="92" stroke="#3F9A70"/>
<rect x="555.5" y="276.5" width="93" height="92" stroke="#3F9A70"/>
<rect x="648.5" y="276.5" width="92" height="92" stroke="#3F9A70"/>
<rect x="740.5" y="276.5" width="93" height="92" stroke="#3F9A70"/>
<rect x="833.5" y="276.5" width="94" height="92" stroke="#3F9A70"/>
<rect x="927.5" y="276.5" width="93" height="92" stroke="#3F9A70"/>
<rect x="1020.5" y="276.5" width="91" height="92" stroke="#3F9A70"/>
<rect x="0.5" y="368.5" width="92" height="92" stroke="#3F9A70"/>
<rect x="92.5" y="368.5" width="93" height="92" stroke="#3F9A70"/>
<rect x="185.5" y="368.5" width="93" height="92" stroke="#3F9A70"/>
<rect x="278.5" y="368.5" width="92" height="92" stroke="#3F9A70"/>
<rect x="370.5" y="368.5" width="92" height="92" stroke="#3F9A70"/>
<rect x="462.5" y="368.5" width="93" height="92" stroke="#3F9A70"/>
<rect x="555.5" y="368.5" width="93" height="92" stroke="#3F9A70"/>
<rect x="648.5" y="368.5" width="92" height="92" stroke="#3F9A70"/>
<rect x="740.5" y="368.5" width="93" height="92" stroke="#3F9A70"/>
<rect x="833.5" y="368.5" width="94" height="92" stroke="#3F9A70"/>
<rect x="927.5" y="368.5" width="93" height="92" stroke="#3F9A70"/>
<rect x="1020.5" y="368.5" width="91" height="92" stroke="#3F9A70"/>
<rect x="0.5" y="460.5" width="92" height="92" stroke="#3F9A70"/>
<rect x="92.5" y="460.5" width="93" height="92" stroke="#3F9A70"/>
<rect x="185.5" y="460.5" width="93" height="92" stroke="#3F9A70"/>
<rect x="370.5" y="460.5" width="92" height="92" stroke="#3F9A70"/>
<rect x="462.5" y="460.5" width="93" height="92" stroke="#3F9A70"/>
<rect x="555.5" y="460.5" width="93" height="92" stroke="#3F9A70"/>
<rect x="648.5" y="460.5" width="92" height="92" stroke="#3F9A70"/>
<rect x="740.5" y="460.5" width="93" height="92" stroke="#3F9A70"/>
<rect x="927.5" y="460.5" width="93" height="92" stroke="#3F9A70"/>
<rect x="1020.5" y="460.5" width="91" height="92" stroke="#3F9A70"/>
<rect x="0.5" y="552.5" width="92" height="92" stroke="#3F9A70"/>
<rect x="92.5" y="552.5" width="93" height="92" stroke="#3F9A70"/>
<rect x="185.5" y="552.5" width="93" height="92" stroke="#3F9A70"/>
<rect x="370.5" y="552.5" width="92" height="92" stroke="#3F9A70"/>
<rect x="462.5" y="552.5" width="93" height="92" stroke="#3F9A70"/>
<rect x="555.5" y="552.5" width="93" height="92" stroke="#3F9A70"/>
<rect x="648.5" y="552.5" width="92" height="92" stroke="#3F9A70"/>
<rect x="740.5" y="552.5" width="93" height="92" stroke="#3F9A70"/>
<rect x="927.5" y="552.5" width="93" height="92" stroke="#3F9A70"/>
<rect x="1020.5" y="552.5" width="91" height="92" stroke="#3F9A70"/>
<rect x="92.5" y="644.5" width="93" height="92" stroke="#3F9A70"/>
<rect x="185.5" y="644.5" width="93" height="92" stroke="#3F9A70"/>
<rect x="370.5" y="644.5" width="92" height="92" stroke="#3F9A70"/>
<rect x="462.5" y="644.5" width="93" height="92" stroke="#3F9A70"/>
<rect x="555.5" y="644.5" width="93" height="92" stroke="#3F9A70"/>
<rect x="648.5" y="644.5" width="92" height="92" stroke="#3F9A70"/>
<rect x="740.5" y="644.5" width="93" height="92" stroke="#3F9A70"/>
<rect x="927.5" y="644.5" width="93" height="92" stroke="#3F9A70"/>
<rect x="1020.5" y="644.5" width="91" height="92" stroke="#3F9A70"/>
</svg>
