<svg width="440" height="187" viewBox="0 0 440 187" fill="none" xmlns="http://www.w3.org/2000/svg">
<path d="M439.5 93.5H265.489V186.5H439.5V93.5Z" stroke="white"/>
<path d="M91.4658 0.5L91.4658 93.5L178.466 93.5L178.466 0.499996L91.4658 0.5Z" stroke="white"/>
<path d="M178.478 93.5L178.478 186.5L265.478 186.5L265.478 93.5L178.478 93.5Z" stroke="white"/>
<path d="M265.478 0.5H178.478V186.5H265.478V0.5Z" stroke="white"/>
<path d="M352.488 0.5H265.488V186.5H352.488V0.5Z" stroke="white"/>
<path d="M91.4551 93.5H0.500023V185.5H91.4551V93.5Z" stroke="white"/>
<path d="M265.191 93.5H178.764L221.978 1.17941L265.191 93.5Z" stroke="white"/>
<path d="M91.1501 185.5H0.804956L45.9775 94.1282L91.1501 185.5Z" stroke="white"/>
</svg>
