<svg width="60" height="64" viewBox="0 0 60 64" fill="none" xmlns="http://www.w3.org/2000/svg">
<path d="M49.0911 19.6572C49.0911 30.0086 40.7473 38.4 30.4547 38.4C20.1621 38.4 11.8184 30.0086 11.8184 19.6572C11.8184 9.30577 20.1621 0.914307 30.4547 0.914307C40.7473 0.914307 49.0911 9.30577 49.0911 19.6572Z" fill="white"/>
<path fill-rule="evenodd" clip-rule="evenodd" d="M29.5083 0.0330062C28.452 0.0874561 27.6399 0.192609 26.3794 0.438143C26.2001 0.473085 25.3399 0.698583 24.6256 0.897934C23.7427 1.14432 22.1435 1.8448 21.0869 2.44794C20.4912 2.788 20.3815 2.85426 19.9446 3.13812C19.516 3.41651 19.3928 3.50408 18.7663 3.97568C18.4559 4.20932 18.4359 4.22585 17.7769 4.79532C17.0672 5.4086 15.7214 6.83656 15.2787 7.44613C15.1606 7.60867 14.7438 8.17467 14.6216 8.33843C14.4049 8.62876 13.8646 9.50061 13.5364 10.0896C13.3891 10.3539 12.8903 11.3708 12.7673 11.6575C12.2966 12.7549 11.9381 13.8228 11.653 14.9767C11.6226 15.0999 11.5774 15.2795 11.5526 15.3759C11.5278 15.4723 11.4797 15.7014 11.4457 15.885C11.3858 16.2088 11.3627 16.3517 11.273 16.9519C11.0889 18.1837 11.0272 20.0172 11.1311 21.1669C11.1963 21.8891 11.2362 22.2359 11.3089 22.7145C11.3978 23.2999 11.4308 23.4841 11.5133 23.8548C11.5607 24.0676 11.6134 24.3058 11.6304 24.3842C11.8166 25.2433 12.398 26.9828 12.7669 27.7848C12.8929 28.0587 13.3029 28.8991 13.4126 29.1084C15.3392 32.7837 18.6278 35.929 22.2938 37.6025C22.513 37.7026 22.7229 37.802 22.76 37.8234C22.7973 37.8449 23.0663 37.9563 23.3579 38.0712C24.2655 38.4285 25.096 38.6904 26.0406 38.9171C26.5176 39.0315 26.6653 39.0611 27.2961 39.1684C29.3135 39.5118 31.5886 39.502 33.5938 39.1413C34.7207 38.9387 36.0869 38.5778 36.7227 38.3147C36.7666 38.2966 36.9639 38.2224 37.1612 38.1499C38.2188 37.7611 39.8376 36.9388 40.6887 36.358C40.7435 36.3207 40.896 36.2186 41.0275 36.1312C42.7493 34.988 44.4717 33.3273 45.7768 31.5519C46.6449 30.3709 47.261 29.308 47.913 27.8663C48.2183 27.1914 48.3031 26.9748 48.5671 26.1965C48.8353 25.4062 49.1157 24.397 49.2178 23.8548C49.4576 22.5815 49.5107 22.1901 49.5966 21.0651C49.6724 20.0737 49.6721 19.3136 49.5957 18.2958C49.5361 17.5022 49.3937 16.4274 49.2718 15.8523C49.2386 15.6955 49.1875 15.4549 49.1582 15.3177C48.9447 14.3143 48.5193 12.9854 48.0584 11.8815C47.9278 11.5688 47.2592 10.2141 47.0519 9.84221C46.6257 9.07767 45.8417 7.91896 45.7362 7.89766C45.7004 7.89041 45.6711 7.90943 45.6711 7.93989C45.6711 7.97039 45.5795 8.08626 45.4677 8.19744C45.3559 8.30858 45.2213 8.46366 45.1686 8.54206C45.1159 8.62045 45.0146 8.76083 44.9434 8.85405C44.6143 9.28517 44.4753 9.47727 44.4753 9.50085C44.4753 9.5149 44.5797 9.68522 44.7073 9.87928C44.9453 10.2414 45.2538 10.7516 45.4116 11.0444C45.8503 11.8581 46.207 12.6184 46.4158 13.1848C46.9758 14.7036 47.2159 15.6188 47.4625 17.1758C47.5593 17.7866 47.6241 18.8319 47.6226 19.7593C47.6192 21.9514 47.3013 23.7948 46.582 25.7949C46.3171 26.5312 46.2454 26.7005 45.8254 27.5812C45.5623 28.1329 45.507 28.2376 45.2019 28.7622C45.002 29.1059 44.4002 30.0254 44.2133 30.2726C44.1272 30.3865 44.0034 30.5515 43.9381 30.6391C42.939 31.9811 41.3956 33.4255 39.8523 34.4629C39.1169 34.9571 39.0434 35.0004 38.1178 35.4823C35.2547 36.9732 32.1721 37.5731 28.8107 37.2935C27.8772 37.2159 26.9487 37.0501 25.9409 36.7813C25.4386 36.6473 24.4787 36.334 24.207 36.2154C24.1413 36.1867 23.9799 36.1208 23.8483 36.0691C22.9114 35.7004 21.2066 34.7537 20.4802 34.1987C20.4035 34.1401 20.1619 33.9558 19.9434 33.7893C16.6291 31.2632 14.2363 27.3812 13.4308 23.2236C13.1827 21.9427 13.1066 21.1258 13.1066 19.7415C13.1067 18.5125 13.1791 17.6397 13.381 16.4377C13.4223 16.1912 13.6086 15.3603 13.6674 15.1599C14.1228 13.6077 14.3427 13.0107 14.8493 11.952C16.2262 9.07381 18.4342 6.54394 21.0442 4.8542C22.0677 4.19148 23.3516 3.52481 24.0523 3.29214C24.1812 3.2493 24.493 3.13807 24.7451 3.04502C25.6986 2.69291 26.3511 2.51689 27.3758 2.33542C28.5127 2.13403 29.0243 2.09204 30.3453 2.09172C31.5439 2.09139 31.9177 2.11538 32.8679 2.25344C35.5647 2.64522 38.221 3.74293 40.4543 5.3884C41.1583 5.90716 42.2831 6.88368 42.2831 6.9762C42.2831 7.00479 42.1082 7.24536 41.8944 7.51077C41.3187 8.22574 41.214 8.35683 40.9079 8.7454C40.7545 8.94023 40.4854 9.27739 40.31 9.49466C40.1347 9.71193 39.9374 9.95967 39.8716 10.0452C39.8058 10.1307 39.4381 10.5899 39.0545 11.0656C38.6708 11.5413 38.3121 11.9902 38.2573 12.0631C38.2025 12.136 38.0769 12.2965 37.9783 12.4196C36.8183 13.8682 36.3919 14.4005 36.1784 14.666C36.0393 14.839 35.8718 15.05 35.806 15.1349C35.7402 15.2198 35.6057 15.3902 35.507 15.5136C35.3334 15.7308 34.7607 16.4476 34.3113 17.0104C34.1907 17.1613 33.832 17.6112 33.5141 18.0101C33.1962 18.4091 32.6826 19.0512 32.3726 19.4372C31.4154 20.6292 30.2706 22.0655 30.166 22.2055C29.8224 22.6653 29.0667 23.5697 29.026 23.5697C28.9993 23.5697 28.8881 23.4552 28.7789 23.3152C28.6696 23.1752 28.3792 22.8133 28.1336 22.5109C27.5789 21.828 27.2716 21.4454 27.1167 21.2448C27.051 21.1597 26.6743 20.6922 26.2797 20.2059C25.8851 19.7197 25.3987 19.1163 25.1988 18.8651C24.9989 18.6139 24.685 18.2242 24.5013 17.999C24.3175 17.7739 23.9489 17.3179 23.6821 16.9857C21.3334 14.0613 21.5359 14.2666 20.9984 14.2649C20.7425 14.2641 20.6724 14.2802 20.5114 14.3769C20.3149 14.4949 20.1267 14.7369 20.0481 14.9726C19.9383 15.3018 20.0299 15.687 20.2916 15.9962C20.3625 16.0799 20.5191 16.2721 20.6397 16.4232C20.7602 16.5742 20.928 16.7825 21.0124 16.886C21.0968 16.9894 21.1957 17.1107 21.2321 17.1555C21.2685 17.2003 21.4581 17.4385 21.6535 17.6849C21.8489 17.9313 22.0927 18.2337 22.1952 18.3569C22.2977 18.4801 22.5044 18.7366 22.6544 18.927C22.8045 19.1174 23.0358 19.403 23.1686 19.5616C23.3013 19.7202 23.4996 19.9647 23.6092 20.1048C23.7188 20.2449 23.9968 20.5918 24.227 20.8757C24.785 21.564 25.2558 22.1494 25.4053 22.3408C25.4724 22.4269 25.7056 22.7156 25.9235 22.9825C26.31 23.4561 26.5153 23.7108 26.758 24.0182C26.8238 24.1015 26.9852 24.3029 27.1167 24.4657C27.5598 25.0141 27.7932 25.3052 28.0242 25.5975C28.2866 25.9296 28.5005 26.0747 28.8263 26.1415C29.1036 26.1984 29.4316 26.1383 29.6571 25.9892C29.78 25.9079 30.585 24.9325 31.9368 23.227C32.2074 22.8856 32.7321 22.2261 33.025 21.8593C33.7491 20.9524 34.6777 19.79 35.1882 19.1515C35.5061 18.7539 35.8199 18.3597 35.8857 18.2756C36.0177 18.1066 36.7412 17.2022 37.1189 16.7339C37.2518 16.5692 37.4053 16.3748 37.4601 16.3019C37.5149 16.229 37.6405 16.0686 37.7391 15.9454C37.8378 15.8222 38.2593 15.2943 38.6758 14.7722C39.0924 14.2502 39.5408 13.6902 39.6723 13.5279C39.8038 13.3656 40.0011 13.1184 40.1107 12.9785C40.2204 12.8387 40.3728 12.6479 40.4495 12.5545C40.5263 12.4612 40.7325 12.2045 40.9079 11.984C41.0833 11.7635 41.2896 11.5058 41.3663 11.4113C41.443 11.3168 41.6762 11.0241 41.8845 10.761C42.0927 10.4979 42.3618 10.1595 42.4824 10.0089C42.6029 9.85846 42.8899 9.4989 43.1201 9.20995C43.3503 8.92101 43.5938 8.62961 43.6612 8.56242C43.7286 8.49522 43.8266 8.36694 43.879 8.27734C43.9665 8.12784 44.119 7.94539 44.7323 7.2568C44.8532 7.1211 44.9787 6.95617 45.0111 6.89027C45.0576 6.79587 46.1231 5.43405 46.7023 4.72881C46.7599 4.65864 46.8913 4.4937 46.9943 4.36228C47.0972 4.23086 47.453 3.78496 47.7849 3.37139C48.1167 2.95783 48.4177 2.56381 48.4538 2.4958C48.5547 2.30557 48.5431 1.80741 48.4327 1.5945C48.3301 1.39645 48.1148 1.19413 47.9168 1.10958C47.7342 1.03163 47.3436 1.03111 47.1621 1.10857C46.9458 1.20097 46.8624 1.28263 46.4294 1.82635C46.2082 2.10414 45.9596 2.4139 45.877 2.51469C45.7944 2.61549 45.5394 2.93457 45.3103 3.2238C45.0812 3.51299 44.7593 3.9185 44.5949 4.12485C44.4305 4.33121 44.1548 4.6779 43.9822 4.89522C43.8097 5.11253 43.6436 5.30011 43.6131 5.31208C43.5813 5.32454 43.4445 5.23181 43.293 5.09514C42.127 4.04332 40.9817 3.20894 39.7122 2.48647C39.3928 2.30475 38.4466 1.82191 38.1975 1.71354C37.6291 1.46634 37.499 1.4114 37.2608 1.31818C36.8695 1.16493 36.5496 1.05061 36.2843 0.969079C35.3808 0.691495 35.2265 0.649589 34.3312 0.438672C33.4878 0.239973 32.303 0.0872527 31.1624 0.0302371C30.3462 -0.010529 30.3528 -0.0105293 29.5083 0.0330062ZM58.7445 13.2635C58.4485 13.3556 58.4379 13.3661 56.9113 15.0896C56.4838 15.5722 56.1025 15.9871 56.0639 16.0115C56.0036 16.0497 55.8425 15.8987 54.908 14.9274C53.9302 13.9112 53.8044 13.7942 53.6428 13.752C53.2407 13.6469 52.7816 13.7901 52.5574 14.0904C52.3254 14.4011 52.2724 14.8724 52.4333 15.194C52.4688 15.2648 52.7713 15.6069 53.1057 15.9541C54.2226 17.1139 54.6391 17.5624 54.6392 17.6056C54.6393 17.6469 53.2909 19.1983 52.7167 19.8175C52.5637 19.9826 52.4027 20.2002 52.3589 20.3013C52.1343 20.8202 52.3744 21.4271 52.895 21.6559C53.2794 21.8249 53.7918 21.7004 54.0485 21.3757C54.1416 21.2579 54.6837 20.6441 55.1346 20.146C55.2677 19.9989 55.5265 19.7102 55.7097 19.5046C55.8928 19.2989 56.0643 19.1307 56.0907 19.1307C56.1395 19.1307 56.3519 19.3456 57.5946 20.6523C57.9751 21.0524 58.3564 21.4255 58.4419 21.4814C58.876 21.7651 59.53 21.5813 59.8083 21.0974C59.9048 20.9296 59.9205 20.8593 59.9198 20.5968C59.9191 20.3709 59.8984 20.2526 59.8401 20.1427C59.7967 20.0609 59.25 19.4597 58.6252 18.8067C58.0004 18.1537 57.4838 17.5948 57.4771 17.5648C57.4705 17.5347 57.6775 17.2745 57.9371 16.9866C58.9963 15.812 59.8592 14.8132 59.9252 14.6851C60.0306 14.4806 60.0234 14.0271 59.9113 13.8107C59.6846 13.3727 59.1698 13.1314 58.7445 13.2635ZM6.39913 13.6479C6.17074 13.735 6.07774 13.826 5.22923 14.7934C4.18022 15.9894 3.802 16.4021 3.75497 16.4021C3.70837 16.4021 3.36738 16.0571 2.42416 15.0557C2.04052 14.6485 1.65604 14.2692 1.56974 14.213C1.46077 14.142 1.33601 14.1045 1.16127 14.0902C0.752914 14.0567 0.429579 14.2233 0.198318 14.5864C0.10461 14.7335 0.092492 14.7925 0.0929305 15.0988C0.0933689 15.3766 0.109472 15.4706 0.174402 15.5744C0.218925 15.6455 0.729876 16.2008 1.30986 16.8084C1.88985 17.416 2.36979 17.9288 2.37641 17.9479C2.38936 17.9853 2.25739 18.1525 1.90771 18.5416C0.365007 20.258 0.120394 20.5509 0.0505609 20.7657C-0.199155 21.534 0.517547 22.2833 1.29057 22.0622C1.53949 21.991 1.69952 21.8341 2.80234 20.58C3.32601 19.9844 3.78263 19.4972 3.81711 19.4972C3.86924 19.4972 4.54633 20.186 5.85856 21.574C6.13418 21.8656 6.27445 21.9433 6.5757 21.9712C7.16119 22.0254 7.65564 21.5653 7.65871 20.9634C7.66066 20.5802 7.57126 20.4381 6.86791 19.7064C5.94171 18.7428 5.56277 18.345 5.35602 18.1192L5.16824 17.9141L5.91699 17.0664C6.80967 16.0558 6.9082 15.9459 7.25697 15.5711C7.40489 15.4121 7.57257 15.1867 7.62957 15.07C7.87558 14.5662 7.68119 13.9612 7.1912 13.7058C6.98685 13.5993 6.60073 13.5711 6.39913 13.6479ZM47.8395 34.5957C47.8093 34.6172 47.7968 35.0156 47.7991 35.8892C47.8033 37.477 47.7354 38.2448 47.4693 39.618C46.9304 42.3989 45.7191 45.058 43.9545 47.333C43.0892 48.4488 41.8951 49.6376 40.7883 50.4855C38.5237 52.2203 35.8289 53.4161 33.1753 53.8639C31.8795 54.0825 31.735 54.0935 30.146 54.0929C28.6375 54.0923 28.182 54.0645 27.4157 53.926C27.2293 53.8923 26.9872 53.8486 26.8776 53.8287C24.4457 53.3887 21.9182 52.2869 19.8025 50.7446C17.1394 48.8033 14.9255 45.9337 13.7373 42.8829C12.8112 40.5049 12.3931 38.181 12.4352 35.6448L12.4487 34.8303L7.72539 34.8028C3.62252 34.779 2.9943 34.7831 2.9426 34.8346C2.8921 34.8848 2.88325 35.0993 2.88421 36.2467C2.88552 37.7985 2.9151 38.2185 3.18092 40.4612C3.19754 40.6015 3.25382 40.8005 3.30592 40.9034C3.45646 41.2006 3.64089 41.3069 4.21781 41.4291C4.49184 41.4872 4.86352 41.5706 5.04373 41.6144C5.22397 41.6583 5.6096 41.747 5.90069 41.8114C6.19182 41.8759 6.80955 42.0128 7.27351 42.1157C7.73747 42.2186 8.15977 42.3194 8.21199 42.3396C8.29286 42.371 8.34368 42.4903 8.55494 43.1443C8.69133 43.5666 8.80266 43.9322 8.80226 43.9567C8.8019 43.9812 8.61771 44.1832 8.39303 44.4055C7.98117 44.813 5.92221 46.7436 5.6668 46.9619C5.41214 47.1794 5.30189 47.5082 5.37687 47.8263C5.49202 48.3151 6.65426 50.4563 7.50987 51.7559C8.05853 52.5893 9.53311 54.5568 9.72419 54.7104C9.82611 54.7923 10.2448 54.8498 10.4062 54.8039C10.4886 54.7805 11.3883 54.3316 12.4055 53.8064C13.4228 53.2811 14.2921 52.8513 14.3373 52.8513C14.4342 52.8513 16.3475 54.5466 16.3666 54.6492C16.3734 54.6861 16.3442 54.7961 16.3016 54.8936C16.2589 54.9911 16.1779 55.19 16.1215 55.3356C16.0651 55.4812 15.9186 55.8477 15.796 56.1501C15.6733 56.4525 15.531 56.8098 15.4797 56.9442C15.4283 57.0786 15.2834 57.436 15.1577 57.7384C15.032 58.0408 14.878 58.4405 14.8154 58.6266C14.7103 58.9393 14.706 58.9756 14.7579 59.1027C14.7956 59.195 14.8907 59.2902 15.0464 59.3919C15.1741 59.4753 15.3504 59.5929 15.4381 59.6533C15.6238 59.7811 16.2924 60.1921 16.6244 60.3826C16.7508 60.455 16.9481 60.5681 17.0629 60.6338C17.3275 60.7852 18.5259 61.3865 18.9457 61.5784C19.9956 62.0583 21.4987 62.6282 21.9351 62.7118C22.3932 62.7996 22.5626 62.7961 22.7513 62.6951C22.939 62.5946 23.022 62.4843 24.7824 59.9971C25.1318 59.5035 25.451 59.0687 25.4919 59.031C25.5619 58.9663 25.6031 58.9683 26.1821 59.0634C26.5208 59.119 27.1937 59.2279 27.6775 59.3052C28.4929 59.4355 28.6912 59.476 28.6912 59.5123C28.6912 59.52 28.7199 59.6326 28.7551 59.7625C28.7903 59.8924 28.8339 60.0719 28.8518 60.1615C28.8698 60.2511 28.9051 60.4069 28.9303 60.5077C28.9813 60.7116 29.146 61.652 29.3488 62.8975C29.4223 63.3494 29.5012 63.7548 29.5239 63.7983C29.5467 63.8417 29.6302 63.9088 29.7096 63.9472C29.8422 64.0115 29.937 64.0135 30.8769 63.9723C32.6905 63.8928 34.0945 63.7218 35.4672 63.4134C35.7193 63.3568 36.0145 63.2942 36.1233 63.2745C36.232 63.2547 36.4114 63.2119 36.5219 63.1794C36.6323 63.1469 36.9021 63.0714 37.1213 63.0117C38.0578 62.7567 38.2861 62.6694 38.4179 62.5161L38.5424 62.3711L38.5146 60.0038L38.4867 57.6366L39.0994 57.3207C39.4365 57.147 40.2323 56.7307 40.8681 56.3956C41.5038 56.0605 42.0583 55.7857 42.1002 55.7849C42.1421 55.7842 42.3817 55.9439 42.6326 56.1399C42.8835 56.3359 43.1755 56.5604 43.2814 56.6388C43.3874 56.7172 43.8622 57.0837 44.3366 57.4533C45.7785 58.5767 45.803 58.5936 45.9942 58.5936C46.0734 58.5936 46.4791 58.3073 46.8298 58.004C46.9081 57.9363 47.0949 57.7801 47.2449 57.6569C48.3185 56.7754 50.0627 55.0105 50.7733 54.0865C50.828 54.0155 51.0599 53.7223 51.2887 53.4349C51.7508 52.8545 51.8087 52.7607 51.8091 52.5932C51.8093 52.5095 51.4866 51.9813 50.6399 50.6791C49.9968 49.6899 49.4291 48.8066 49.3784 48.7163L49.2864 48.5519L49.5364 48.0647C49.6739 47.7966 49.8763 47.4033 49.9861 47.1905C50.096 46.9777 50.2755 46.6295 50.3852 46.4167C50.4948 46.2039 50.6423 45.9198 50.7131 45.7855C50.7838 45.6511 50.9167 45.3914 51.0084 45.2085C51.1002 45.0256 51.2021 44.8532 51.2349 44.8254C51.2816 44.7859 51.7624 44.78 53.4405 44.7986C55.79 44.8247 55.6591 44.8365 55.836 44.5828C55.9251 44.4549 56.0116 44.162 56.2684 43.1179C56.7427 41.1898 56.9534 39.7673 57.0925 37.5544L57.1184 37.1425L56.9987 37.0555C56.9329 37.0076 56.8681 36.9684 56.8546 36.9684C56.8412 36.9684 56.7005 36.8886 56.5419 36.7912C56.3833 36.6937 55.85 36.4108 55.3568 36.1625C54.8635 35.9142 54.3434 35.6398 54.2009 35.5527C54.0584 35.4657 53.7147 35.2629 53.4371 35.1022L52.9325 34.81L52.2214 34.8097C51.3328 34.8093 48.2163 34.6442 47.9648 34.5843C47.9199 34.5735 47.8635 34.5787 47.8395 34.5957Z" fill="black"/>
</svg>
