<svg width="166" height="166" viewBox="0 0 166 166" fill="none" xmlns="http://www.w3.org/2000/svg">
<g clip-path="url(#clip0_427_7260)">
<path d="M79.9504 83.1474C79.9504 91.0613 80.5636 98.5973 81.1427 105.434C81.1662 105.711 81.1896 105.987 81.213 106.262C81.7657 112.776 82.2612 118.615 82.1385 123.544C82.0103 128.691 81.2074 132.744 79.1784 135.507C77.1773 138.232 73.9105 139.794 68.6089 139.794C31.0733 139.794 0.802734 114.353 0.802734 83.1474C0.802734 51.9423 31.0733 26.501 68.6089 26.501C71.1408 26.501 73.1269 27.942 74.7025 30.7373C76.2874 33.549 77.4101 37.6612 78.1944 42.814C79.7617 53.1112 79.9504 67.3583 79.9504 83.1474Z" fill="#5FC194" stroke="#1E1E1E"/>
<path d="M101.773 83.1474C101.773 98.8592 98.2275 113.059 92.521 123.313C86.8053 133.584 78.9887 139.794 70.4703 139.794C61.9519 139.794 54.1353 133.584 48.4196 123.313C42.7131 113.059 39.168 98.8592 39.168 83.1474C39.168 67.4356 42.7131 53.2359 48.4196 42.9819C54.1353 32.7111 61.9519 26.501 70.4703 26.501C78.9887 26.501 86.8053 32.7111 92.521 42.9819C98.2275 53.2359 101.773 67.4356 101.773 83.1474Z" fill="#383F43" stroke="#1E1E1E"/>
<mask id="path-3-inside-1_427_7260" fill="white">
<path d="M166.16 83.3844C166.208 83.3844 166.256 83.3807 166.304 83.3807H166.019C115.966 83.1882 115.959 33.041 115.959 33.041C115.959 33.041 115.955 83.1882 65.9022 83.3807H65.6172C65.6653 83.3807 65.7134 83.3844 65.7615 83.3844C65.7134 83.3844 65.6653 83.3881 65.6172 83.3881H65.9022C115.955 83.5806 115.959 133.728 115.959 133.728C115.959 133.728 115.962 83.5806 166.015 83.3881H166.3C166.256 83.3844 166.208 83.3844 166.16 83.3844Z"/>
</mask>
<path d="M166.16 83.3844C166.208 83.3844 166.256 83.3807 166.304 83.3807H166.019C115.966 83.1882 115.959 33.041 115.959 33.041C115.959 33.041 115.955 83.1882 65.9022 83.3807H65.6172C65.6653 83.3807 65.7134 83.3844 65.7615 83.3844C65.7134 83.3844 65.6653 83.3881 65.6172 83.3881H65.9022C115.955 83.5806 115.959 133.728 115.959 133.728C115.959 133.728 115.962 83.5806 166.015 83.3881H166.3C166.256 83.3844 166.208 83.3844 166.16 83.3844Z" fill="#5FC194"/>
<path d="M166.304 83.3807L166.727 83.5919L167.078 82.8879L166.292 82.9081L166.304 83.3807ZM166.019 83.3807L166.031 82.9081L165.731 82.9002L165.596 83.1693L166.019 83.3807ZM65.9022 83.3807H66.3749V82.8955L65.8899 82.9081L65.9022 83.3807ZM65.6172 83.3807L65.6293 82.9081L65.1444 82.8956V83.3807H65.6172ZM65.6172 83.3881H65.1444V83.8732L65.6293 83.8607L65.6172 83.3881ZM65.9022 83.3881L65.8899 83.8607L66.3749 83.8733V83.3881H65.9022ZM166.015 83.3881L165.592 83.1767L165.24 83.8809L166.027 83.8607L166.015 83.3881ZM166.3 83.3881L166.288 83.8607L166.589 83.8686L166.723 83.5993L166.3 83.3881ZM166.172 83.857L166.316 83.8533L166.292 82.9081L166.148 82.9118L166.172 83.857ZM166.172 82.9118L166.031 82.9081L166.007 83.8533L166.147 83.857L166.172 82.9118ZM166.148 82.9118L166.003 82.9155L166.027 83.8607L166.172 83.857L166.148 82.9118ZM166.147 83.857L166.288 83.8607L166.313 82.9155L166.172 82.9118L166.147 83.857ZM166.292 82.9081L166.003 82.9155L166.027 83.8607L166.316 83.8533L166.292 82.9081ZM165.881 83.1696L165.877 83.177L166.723 83.5993L166.727 83.5919L165.881 83.1696ZM165.596 83.1693L165.592 83.1767L166.438 83.5995L166.442 83.5921L165.596 83.1693ZM166.007 83.8533L166.288 83.8607L166.313 82.9155L166.031 82.9081L166.007 83.8533ZM65.8897 82.9081L65.7491 82.9118L65.774 83.857L65.9146 83.8533L65.8897 82.9081ZM65.8899 82.9081L65.6049 82.9155L65.6295 83.8607L65.9144 83.8533L65.8899 82.9081ZM65.4294 83.3807V83.3881H66.3749V83.3807H65.4294ZM65.6051 83.8533L65.7494 83.857L65.7737 82.9118L65.6293 82.9081L65.6051 83.8533ZM65.1444 83.3807V83.3881H66.09V83.3807H65.1444ZM65.6049 83.8533L65.8899 83.8607L65.9144 82.9155L65.6295 82.9081L65.6049 83.8533ZM65.7494 82.9118L65.6051 82.9155L65.6293 83.8607L65.7736 83.857L65.7494 82.9118ZM65.7491 83.857L65.8897 83.8607L65.9146 82.9155L65.774 82.9118L65.7491 83.857ZM166.019 83.3807L166.015 84.3262H166.019V83.3807ZM115.959 33.041L116.904 33.0409L115.013 33.0409L115.959 33.041ZM65.9022 83.3807L65.9022 84.3263L65.9058 84.3262L65.9022 83.3807ZM65.9022 83.3881L65.9058 82.4426H65.9022V83.3881ZM115.959 133.728L115.013 133.728L116.904 133.728L115.959 133.728ZM166.015 83.3881V82.4426L166.012 82.4426L166.015 83.3881ZM166.3 83.3881V84.3336L166.379 82.4458L166.3 83.3881ZM166.16 84.33C166.205 84.33 166.247 84.3282 166.268 84.3274C166.281 84.3269 166.288 84.3266 166.295 84.3264C166.298 84.3263 166.3 84.3263 166.302 84.3263C166.303 84.3262 166.304 84.3262 166.304 84.3262V82.4352C166.259 82.4352 166.216 82.4369 166.195 82.4377C166.183 82.4382 166.175 82.4385 166.168 82.4387C166.165 82.4388 166.163 82.4388 166.162 82.4388C166.16 82.4389 166.16 82.4389 166.16 82.4389V84.33ZM166.304 82.4352H166.019V84.3262H166.304V82.4352ZM166.023 82.4352C153.675 82.3877 144.476 79.2624 137.608 74.649C130.734 70.0316 126.139 63.8858 123.065 57.717C119.99 51.5447 118.447 45.3669 117.675 40.7243C117.289 38.4053 117.096 36.4753 117 35.1288C116.952 34.4557 116.928 33.9289 116.916 33.5727C116.91 33.3946 116.907 33.2592 116.906 33.1695C116.905 33.1247 116.905 33.0913 116.904 33.0697C116.904 33.0589 116.904 33.0511 116.904 33.0463C116.904 33.0439 116.904 33.0422 116.904 33.0413C116.904 33.0409 116.904 33.0408 116.904 33.0405C116.904 33.0406 116.904 33.0409 115.959 33.041C115.013 33.0412 115.013 33.0418 115.013 33.0427C115.013 33.0432 115.013 33.0442 115.013 33.0453C115.013 33.0474 115.013 33.0503 115.013 33.054C115.013 33.0613 115.013 33.0717 115.013 33.085C115.014 33.1116 115.014 33.1502 115.015 33.2002C115.016 33.3004 115.02 33.4466 115.026 33.6358C115.039 34.0143 115.064 34.565 115.114 35.2635C115.213 36.6602 115.412 38.6495 115.809 41.0347C116.602 45.8008 118.19 52.1718 121.373 58.5604C124.558 64.9525 129.349 71.3795 136.554 76.2188C143.764 81.0622 153.336 84.2775 166.015 84.3262L166.023 82.4352ZM115.959 33.041C115.013 33.0409 115.013 33.0407 115.013 33.0406C115.013 33.0408 115.013 33.0409 115.013 33.0414C115.013 33.0423 115.013 33.044 115.013 33.0464C115.013 33.0512 115.013 33.059 115.013 33.0698C115.013 33.0914 115.013 33.1248 115.012 33.1696C115.01 33.2592 115.007 33.3946 115.001 33.5727C114.99 33.9289 114.966 34.4558 114.918 35.1289C114.822 36.4754 114.629 38.4053 114.243 40.7244C113.471 45.3669 111.929 51.5447 108.854 57.7171C105.781 63.8858 101.186 70.0316 94.3123 74.649C87.4445 79.2624 78.2459 82.3877 65.8985 82.4352L65.9058 84.3262C78.5849 84.2775 88.1566 81.0622 95.3668 76.2188C102.571 71.3795 107.362 64.9524 110.547 58.5603C113.729 52.1718 115.316 45.8007 116.109 41.0347C116.506 38.6494 116.704 36.6601 116.804 35.2634C116.854 34.565 116.879 34.0142 116.891 33.6357C116.898 33.4465 116.901 33.3003 116.903 33.2002C116.903 33.1501 116.904 33.1116 116.904 33.0849C116.904 33.0716 116.904 33.0613 116.904 33.0539C116.904 33.0503 116.904 33.0474 116.904 33.0452C116.904 33.0442 116.904 33.0431 116.904 33.0426C116.904 33.0417 116.904 33.0411 115.959 33.041ZM65.9022 82.4352H65.6172V84.3262H65.9022V82.4352ZM65.6172 84.3262C65.6172 84.3262 65.6178 84.3262 65.6193 84.3263C65.6208 84.3263 65.623 84.3263 65.626 84.3264C65.6327 84.3266 65.6402 84.3269 65.653 84.3274C65.674 84.3282 65.7162 84.33 65.7615 84.33V82.4389C65.7616 82.4389 65.7609 82.4389 65.7594 82.4388C65.7579 82.4388 65.7558 82.4388 65.7527 82.4387C65.746 82.4385 65.7385 82.4382 65.7257 82.4377C65.7047 82.4369 65.6625 82.4352 65.6172 82.4352V84.3262ZM65.7615 82.4389C65.7163 82.4389 65.6741 82.4406 65.653 82.4414C65.6403 82.4419 65.6328 82.4422 65.626 82.4424C65.623 82.4425 65.6208 82.4425 65.6193 82.4425C65.6178 82.4426 65.6172 82.4426 65.6172 82.4426V84.3336C65.6624 84.3336 65.7047 84.3319 65.7257 84.3311C65.7385 84.3306 65.746 84.3303 65.7527 84.3301C65.7557 84.33 65.7579 84.33 65.7594 84.33C65.7609 84.33 65.7615 84.33 65.7615 84.33V82.4389ZM65.6172 84.3336H65.9022V82.4426H65.6172V84.3336ZM65.8985 84.3336C78.2459 84.3811 87.4445 87.5064 94.3123 92.1198C101.186 96.7372 105.781 102.883 108.854 109.052C111.929 115.224 113.471 121.402 114.243 126.044C114.629 128.363 114.822 130.293 114.918 131.64C114.966 132.313 114.99 132.84 115.001 133.196C115.007 133.374 115.01 133.51 115.012 133.599C115.013 133.644 115.013 133.677 115.013 133.699C115.013 133.71 115.013 133.718 115.013 133.722C115.013 133.725 115.013 133.727 115.013 133.727C115.013 133.728 115.013 133.728 115.013 133.728C115.013 133.728 115.013 133.728 115.959 133.728C116.904 133.728 116.904 133.727 116.904 133.726C116.904 133.726 116.904 133.725 116.904 133.724C116.904 133.721 116.904 133.719 116.904 133.715C116.904 133.708 116.904 133.697 116.904 133.684C116.904 133.657 116.903 133.619 116.903 133.569C116.901 133.469 116.898 133.322 116.891 133.133C116.879 132.755 116.854 132.204 116.804 131.505C116.704 130.109 116.506 128.119 116.109 125.734C115.316 120.968 113.729 114.597 110.547 108.209C107.362 101.816 102.571 95.3893 95.3668 90.55C88.1566 85.7066 78.5849 82.4913 65.9058 82.4426L65.8985 84.3336ZM115.959 133.728C116.904 133.728 116.904 133.728 116.904 133.728C116.904 133.728 116.904 133.728 116.904 133.727C116.904 133.727 116.904 133.725 116.904 133.722C116.904 133.718 116.904 133.71 116.904 133.699C116.905 133.677 116.905 133.644 116.906 133.599C116.907 133.51 116.91 133.374 116.916 133.196C116.928 132.84 116.952 132.313 117 131.64C117.096 130.293 117.288 128.363 117.674 126.044C118.446 121.402 119.989 115.224 123.064 109.052C126.137 102.883 130.731 96.7372 137.605 92.1198C144.473 87.5064 153.672 84.3811 166.019 84.3336L166.012 82.4426C153.333 82.4913 143.761 85.7066 136.551 90.55C129.346 95.3893 124.555 101.816 121.371 108.209C118.188 114.597 116.601 120.968 115.809 125.734C115.412 128.119 115.213 130.109 115.114 131.505C115.064 132.204 115.039 132.755 115.026 133.133C115.02 133.322 115.016 133.469 115.015 133.569C115.014 133.619 115.014 133.657 115.013 133.684C115.013 133.697 115.013 133.708 115.013 133.715C115.013 133.719 115.013 133.721 115.013 133.724C115.013 133.725 115.013 133.726 115.013 133.726C115.013 133.727 115.013 133.728 115.959 133.728ZM166.015 84.3336H166.3V82.4426H166.015V84.3336ZM166.379 82.4458C166.288 82.4383 166.199 82.4389 166.16 82.4389V84.33C166.185 84.33 166.2 84.33 166.213 84.3302C166.225 84.3305 166.227 84.3308 166.222 84.3304L166.379 82.4458Z" fill="#1E1E1E" mask="url(#path-3-inside-1_427_7260)"/>
</g>
<defs>
<clipPath id="clip0_427_7260">
<rect width="166" height="166" fill="white"/>
</clipPath>
</defs>
</svg>
