<svg width="61" height="71" viewBox="0 0 61 71" fill="none" xmlns="http://www.w3.org/2000/svg">
<path d="M8.70426 6.96097C1.3965 6.96097 0.903152 11.9132 1.01188 15.8957V62.5545C1.01201 69.4922 5.81957 70.0001 8.70426 70.0001H41.397C47.5509 70.0001 49.0894 65.0364 49.0894 62.5545V16.3803C49.4613 10.4239 48.019 6.94923 43.3201 6.96097H10.1467H8.70426Z" fill="#86868A" stroke="#1E1E1E"/>
<path d="M22.2772 5.00396L22.4352 4.98015L22.5036 4.8357L24.4616 0.700959L26.4196 4.8357L26.4879 4.97998L26.6458 5.00392L31.0468 5.67136L27.8537 8.91308L27.7466 9.0218L27.7714 9.17239L28.5237 13.7366L24.6057 11.5919L24.4616 11.5131L24.3176 11.5919L20.3995 13.7366L21.1518 9.17239L21.1766 9.02193L21.0697 8.91323L17.8764 5.66685L22.2772 5.00396Z" fill="white" stroke="#1E1E1E" stroke-width="0.6"/>
<path d="M3.78809 20.8477H18.3771H32.4798H46.0962V47.6517H32.4798H18.3771H3.78809V20.8477Z" fill="white"/>
<path d="M18.3771 20.8477H3.78809V47.6517H18.3771M18.3771 20.8477V47.6517M18.3771 20.8477H32.4798M18.3771 47.6517H32.4798M32.4798 47.6517V20.8477M32.4798 47.6517H46.0962V20.8477H32.4798" stroke="#1E1E1E" stroke-linejoin="round"/>
<path d="M46.0962 51.6226H3.78809V61.55H46.0962V51.6226Z" fill="#3F9A70" stroke="#1E1E1E" stroke-linejoin="round"/>
<path d="M42.2495 54.6008H7.63379V58.5718H42.2495V54.6008Z" fill="#1E1E1E" stroke="#1E1E1E" stroke-linejoin="round"/>
<path d="M52.8267 35.7388H48.9805V46.1626H52.8267V35.7388Z" fill="#86868A" stroke="#1E1E1E" stroke-width="0.8"/>
<path d="M55.7118 38.2207H52.8271V43.6808H59.0772V16.8767H55.7118V38.2207Z" stroke="#1E1E1E" stroke-width="0.8"/>
<path d="M60.5997 14.643C60.5997 16.4902 59.1525 17.9657 57.3939 17.9657C55.6353 17.9657 54.1881 16.4902 54.1881 14.643C54.1881 12.7957 55.6353 11.3202 57.3939 11.3202C59.1525 11.3202 60.5997 12.7957 60.5997 14.643Z" fill="#86868A" stroke="#1E1E1E" stroke-width="0.8"/>
<path d="M8.59595 30.2788H6.67285V27.7969L7.6344 26.8042H15.8076V30.2788L10.0383 40.7026H7.6344L13.4037 30.2788V28.7897H8.59595V30.2788Z" fill="#86868A" stroke="#1E1E1E" stroke-width="0.8" stroke-linejoin="round"/>
<path d="M23.0188 30.2788H21.0957V27.7969L22.0573 26.8042H30.2304V30.2788L24.4611 40.7026H22.0573L27.8265 30.2788V28.7897H23.0188V30.2788Z" fill="#86868A" stroke="#1E1E1E" stroke-width="0.8" stroke-linejoin="round"/>
<path d="M36.4807 30.2788H34.5576V27.7969L35.5192 26.8042H43.6923V30.2788L37.923 40.7026H35.5192L41.2884 30.2788V28.7897H36.4807V30.2788Z" fill="#86868A" stroke="#1E1E1E" stroke-width="0.8" stroke-linejoin="round"/>
</svg>
