<svg width="60" height="70" viewBox="0 0 60 70" fill="none" xmlns="http://www.w3.org/2000/svg">
<path d="M36.4376 14.7656C36.4376 22.6184 30.2016 28.9844 22.5091 28.9844C14.8165 28.9844 9.11621 22.6184 9.11621 14.7656C9.11621 6.91283 14.8165 0.546875 22.5091 0.546875C30.2016 0.546875 36.4376 6.91283 36.4376 14.7656Z" fill="white"/>
<path d="M58.9282 29.5312C58.9282 39.1962 51.4929 47.0312 42.321 47.0312C33.1491 47.0312 25.7139 39.1962 25.7139 29.5312C25.7139 19.8663 33.1491 12.0312 42.321 12.0312C51.4929 12.0312 58.9282 19.8663 58.9282 29.5312Z" fill="#86868A"/>
<path d="M56.2496 29.5312C56.2496 37.082 49.7177 43.2031 42.321 43.2031C34.9243 43.2031 29.4639 35.9883 29.4639 28.4375C29.4639 20.8867 35.4601 15.3125 42.8567 15.3125C50.2534 15.3125 56.2496 21.9805 56.2496 29.5312Z" fill="white"/>
<path d="M37.5003 30.0781L31.6074 36.6406L33.7503 38.8281L38.036 33.3594L43.3931 37.1875L49.8217 29.5312L51.4289 31.1719L52.5003 24.6094L46.6074 26.7969L48.2146 27.8906L42.8574 33.9062L37.5003 30.0781Z" fill="#86868A"/>
<path d="M20.8933 69.4531L15.5361 65.625L28.3933 46.4844H30.0004C29.5718 49.1094 31.9647 49.401 33.2147 49.2188V50.8594L20.8933 69.4531Z" fill="#86868A"/>
<path d="M21.9647 32.8125C21.9647 37.0147 18.7133 40.4688 15.0004 40.4688C11.2876 40.4688 8.03613 37.0147 8.03613 32.8125C8.03613 28.6103 11.2876 25.7031 15.0004 25.7031C18.7133 25.7031 21.9647 28.6103 21.9647 32.8125Z" fill="white"/>
<path fill-rule="evenodd" clip-rule="evenodd" d="M0.0489196 24.3215C0.156783 24.5289 0.160412 24.5293 1.8083 24.5238L3.31029 24.5187L3.29947 35.5437L3.28868 46.5688L3.36687 46.6896C3.40989 46.756 3.49718 46.8474 3.56085 46.8927L3.6766 46.9751L8.38874 46.9539C10.9804 46.9423 14.4346 46.9253 16.0647 46.9162C26.6993 46.8567 27.8124 46.8555 27.7851 46.9038C27.7704 46.9298 27.5985 47.1855 27.4031 47.4722C27.2077 47.7589 26.7333 48.4547 26.349 49.0184C25.5345 50.2132 24.0757 52.3523 23.0789 53.8135C22.6943 54.3773 21.9961 55.4015 21.5274 56.0895C20.3278 57.8502 18.9849 59.8193 18.1444 61.05C17.3444 62.2214 15.8891 64.3585 15.5516 64.8576C15.4309 65.0362 15.2533 65.2863 15.157 65.4136C14.9396 65.7008 14.8949 65.8368 14.9552 66.0271C15.0081 66.194 14.9706 66.1671 17.7126 68.0077C18.1389 68.294 18.6148 68.6151 20.0895 69.6121C20.386 69.8126 20.6703 69.9795 20.7375 69.9927C20.8298 70.0108 20.8919 69.997 21.0085 69.9327C21.1733 69.8419 21.2749 69.7085 21.9366 68.7137C22.1441 68.4019 22.6986 67.5718 23.1688 66.8691C23.639 66.1664 24.316 65.153 24.6731 64.6172C25.0303 64.0813 25.3836 63.5539 25.4583 63.4451C25.5329 63.3364 25.9437 62.7236 26.371 62.0833C27.5586 60.304 27.7717 59.9853 27.9699 59.6923C28.0707 59.5433 28.4528 58.972 28.8191 58.4227C29.1854 57.8733 29.6575 57.167 29.8681 56.8532C30.0787 56.5394 30.6332 55.711 31.1003 55.0123C31.5673 54.3136 32.2402 53.3085 32.5956 52.7787C33.845 50.9165 33.7977 50.9966 33.7977 50.7462C33.7977 50.6263 33.7839 50.4034 33.7671 50.2511C33.7503 50.0987 33.7188 49.7942 33.697 49.5744C33.6718 49.3183 33.633 49.12 33.5892 49.0223C33.5449 48.9234 33.5315 48.8538 33.551 48.8246C33.5676 48.7998 33.9697 48.243 34.4446 47.5872C34.9195 46.9315 35.442 46.21 35.6058 45.9838C35.8202 45.6876 35.9188 45.5774 35.9579 45.5901C35.9878 45.5997 36.1995 45.6887 36.4285 45.7878C37.6907 46.3342 39.3381 46.7791 40.8024 46.969C43.2207 47.2825 45.8243 47.0165 48.1506 46.2181C48.7191 46.023 49.0697 45.8911 49.2995 45.786C49.3727 45.7525 49.5825 45.6591 49.7657 45.5784C50.2412 45.3692 51.2216 44.8367 51.7471 44.5024C54.1189 42.9933 56.1106 40.9151 57.5226 38.4762C57.7376 38.1048 58.2742 37.0856 58.2742 37.0486C58.2742 37.0425 58.3329 36.907 58.4045 36.7474C58.4762 36.5879 58.5602 36.3948 58.5911 36.3184C59.4057 34.3043 59.8176 32.5213 59.9759 30.3245C60.0242 29.6537 59.9964 28.1012 59.9237 27.4058C59.6215 24.5167 58.7537 21.9314 57.2746 19.5135C56.9219 18.937 56.3404 18.1164 55.9105 17.5887C55.498 17.0824 54.3897 15.9341 53.9117 15.5178C52.0676 13.912 50.0219 12.7629 47.7343 12.048C46.2697 11.5902 44.317 11.283 42.8723 11.2831C41.6686 11.2833 39.9864 11.5051 38.7429 11.8276C38.1 11.9944 37.0176 12.3546 36.5826 12.5466C36.5117 12.5779 36.4361 12.6035 36.4146 12.6035C36.3902 12.6035 36.3471 12.4202 36.2996 12.115C36.1569 11.1966 35.873 10.132 35.5106 9.15635C35.4447 8.97876 35.2359 8.50509 35.0467 8.10376C34.3427 6.61008 33.5721 5.48737 32.4334 4.2962C31.4225 3.23875 30.5571 2.54906 29.3625 1.84877C28.7187 1.47131 27.6969 0.993814 27.0693 0.777027C26.4478 0.562359 25.5043 0.306444 25.0561 0.230973C22.8971 -0.132481 21.1696 -0.0704587 19.1859 0.441679C17.3716 0.910069 15.6626 1.76662 14.1345 2.97349C13.1635 3.74032 12.1375 4.82426 11.3981 5.86428C8.96739 9.28332 8.09253 13.6401 9.00525 17.7808C9.61853 20.563 10.9479 23.0018 12.9485 25.0147L13.4901 25.5597L13.3455 25.5973C12.6975 25.7658 11.7405 26.2057 11.1681 26.5983C10.0783 27.3456 9.20096 28.3749 8.62392 29.5833C7.74863 31.4161 7.61432 33.4901 8.24288 35.4671C8.38581 35.9166 8.78726 36.7738 9.04029 37.1697C9.31749 37.6034 9.69552 38.0836 10.0362 38.4346C11.9144 40.3699 14.653 41.0938 17.2022 40.3288C19.7151 39.5746 21.6445 37.4741 22.2743 34.8069C22.4332 34.1339 22.4781 33.7184 22.477 32.9305C22.4758 32.0487 22.3437 31.2605 22.055 30.4132C21.9414 30.0799 21.6105 29.3355 21.4872 29.1358C21.4552 29.084 21.4359 29.0359 21.4443 29.0289C21.4527 29.0218 21.6918 29.0286 21.9757 29.044C23.0156 29.1002 24.2648 28.9959 25.3511 28.7621C25.5317 28.7232 25.6832 28.6914 25.6877 28.6914C25.6922 28.6914 25.7043 29.0784 25.7146 29.5514C25.7475 31.0589 25.9193 32.3484 26.2761 33.7645C26.4202 34.3366 26.6501 35.0925 26.7584 35.3507C26.7837 35.4109 26.8044 35.4743 26.8044 35.4915C26.8044 35.6423 27.6441 37.5164 27.9755 38.1054C28.4128 38.8825 28.9397 39.6936 29.3992 40.2969C30.0486 41.1495 31.0255 42.206 31.714 42.7999C31.9236 42.9808 32.0961 43.1481 32.0972 43.1718C32.0984 43.1954 32.0188 43.3362 31.9203 43.4845C31.6869 43.8364 31.0296 44.8317 30.6518 45.4057C30.4876 45.6552 30.3302 45.8805 30.3021 45.9063C30.2487 45.9554 29.4349 45.9622 17.3468 46.0148C14.865 46.0256 12.0477 46.0402 11.0862 46.0474C9.7582 46.0572 4.90516 46.0701 4.25032 46.0656L4.15797 46.0649L4.16707 35.3136C4.17203 29.4004 4.18861 24.5493 4.20386 24.5333C4.21911 24.5174 4.8559 24.5007 5.61894 24.4962C6.90793 24.4886 7.01217 24.4835 7.08973 24.4239C7.2237 24.321 7.30365 24.1389 7.27635 23.9989C7.26346 23.9329 6.56063 22.4409 5.71451 20.6833C4.23204 17.6038 4.17156 17.4852 4.05061 17.422C3.95923 17.3742 3.89193 17.3628 3.80305 17.3803C3.58236 17.4234 3.52355 17.5141 2.68672 19.0999C2.63087 19.2057 2.52937 19.394 2.46117 19.5182C2.17734 20.0351 1.75422 20.8165 1.52021 21.2558C1.38271 21.514 1.18882 21.8736 1.08935 22.055C0.989883 22.2364 0.746117 22.6858 0.547607 23.0537C0.349131 23.4216 0.175165 23.7226 0.161078 23.7226C0.146992 23.7226 0.104233 23.7752 0.0661363 23.8396C-0.0149857 23.9765 -0.0223786 24.1844 0.0489196 24.3215ZM1.9116 22.3501C2.20035 21.815 2.56827 21.1348 2.72925 20.8386C2.89019 20.5423 3.16499 20.0342 3.33993 19.7093C3.51486 19.3844 3.69971 19.0447 3.75073 18.9544L3.84348 18.7902L4.98671 21.1723C5.61551 22.4825 6.12099 23.5638 6.11 23.5753C6.09901 23.5867 5.83923 23.5995 5.53269 23.6035C5.01708 23.6103 1.47711 23.6242 1.30072 23.6201L1.22263 23.6183L1.30461 23.4707C1.34974 23.3894 1.62287 22.8852 1.9116 22.3501ZM8.67284 32.0002C9.05061 29.2898 10.9325 27.0868 13.4839 26.3684C13.7821 26.2844 14.3069 26.1993 14.769 26.1599C16.078 26.0485 17.5727 26.4517 18.7122 27.2235C19.1383 27.5122 19.3617 27.6979 19.7231 28.0638C20.7526 29.1061 21.4018 30.389 21.643 31.8575C22.0316 34.2229 21.1667 36.6891 19.4091 38.2278C18.4995 39.0241 17.3903 39.5601 16.2312 39.7636C15.9459 39.8136 15.7029 39.8271 15.1323 39.8244C14.4859 39.8214 14.3467 39.8103 13.9501 39.7296C11.6934 39.2712 9.87062 37.6878 9.04282 35.4671C8.86762 34.9971 8.70714 34.3319 8.65715 33.8687C8.63757 33.6872 8.61553 33.4839 8.60813 33.417C8.58326 33.1915 8.62052 32.3756 8.67284 32.0002ZM9.59049 13.2116C9.95471 9.31681 11.9084 5.78036 14.985 3.44671C15.2992 3.20834 15.5683 3.01331 15.583 3.01331C15.5977 3.01331 15.7645 2.91779 15.9538 2.80108C16.3697 2.54447 16.7323 2.35325 17.2636 2.11037C17.4833 2.00985 17.7242 1.89915 17.7988 1.86433C18.0416 1.75102 18.8045 1.48923 19.2042 1.38211C20.5299 1.02675 21.5716 0.903155 22.9367 0.939327C25.1724 0.998501 27.2956 1.63121 29.1922 2.80333C29.379 2.91883 29.5439 3.01366 29.5585 3.01411C29.5731 3.01452 29.7894 3.16699 30.0391 3.35289C32.6526 5.29824 34.4751 8.07415 35.2284 11.2565C35.3379 11.7189 35.5289 12.8098 35.5292 12.9743C35.5293 12.9967 35.2709 13.1542 34.9549 13.3243C34.2133 13.7236 34.0771 13.8096 32.7719 14.7025C31.3404 15.6817 30.1434 16.8949 29.0812 18.4429C28.9387 18.6506 28.818 18.8163 28.813 18.811C28.808 18.8058 28.8261 18.6475 28.8531 18.4593C28.9661 17.674 28.874 16.9778 28.5199 15.9422C28.3658 15.4912 27.9428 14.8045 27.549 14.3658C26.9034 13.6465 25.6105 13.1062 24.2069 12.9689C23.1061 12.8612 22.2094 12.7031 21.8092 12.5461C21.3363 12.3606 20.6471 11.9105 20.373 11.6081C19.9188 11.1072 19.8421 10.5285 20.1363 9.82294C20.3082 9.41091 20.739 8.87452 21.0882 8.63786C21.4293 8.40669 21.9957 8.2006 22.5085 8.12106C23.0238 8.04118 24.3068 8.06946 24.84 8.17245C25.2784 8.25713 26.167 8.31102 26.3327 8.26297C26.5536 8.1989 26.8153 7.91456 26.8838 7.66407C26.9504 7.42101 26.9504 7.39579 26.8839 7.15721C26.82 6.92799 26.6336 6.69983 26.4282 6.59955C26.3451 6.55894 26.1395 6.51418 25.9219 6.48926C25.7204 6.46619 25.3833 6.41081 25.1726 6.36612C24.962 6.32147 24.6398 6.2664 24.4566 6.24374C24.2735 6.22112 24.1053 6.19708 24.0828 6.19038C24.0514 6.18096 24.0458 5.96785 24.0583 5.26461C24.0673 4.76217 24.0817 4.30416 24.0903 4.24683C24.0989 4.1895 24.0856 4.05263 24.0608 3.94266C23.8461 2.98993 22.6168 2.87793 22.2312 3.77597C22.1783 3.89912 22.1617 4.01865 22.1559 4.31633C22.1364 5.32291 22.1034 6.16001 22.0823 6.18002C22.0539 6.20705 21.6429 6.31428 21.5679 6.31428C21.5045 6.31428 20.9051 6.50793 20.7602 6.5752C20.7052 6.6007 20.5799 6.65456 20.4817 6.69483C20.3834 6.73514 20.2411 6.81234 20.1653 6.86641C20.0895 6.92048 19.9776 6.99143 19.9165 7.02413C19.6607 7.161 19.0889 7.78811 18.7419 8.31224C18.3993 8.82987 18.1297 9.53256 18.0455 10.1278C17.9891 10.526 18.0285 11.0626 18.1451 11.487C18.3867 12.3664 18.8762 13.0489 19.669 13.6123C19.8564 13.7454 20.0189 13.8544 20.0302 13.8544C20.0414 13.8544 20.0904 13.8839 20.139 13.9199C20.3152 14.0504 20.8004 14.3045 21.1052 14.4259C21.7124 14.6677 22.3191 14.7851 23.9072 14.9685C24.6255 15.0514 24.9463 15.1247 25.4132 15.3123C25.9401 15.524 26.1164 15.6629 26.3971 16.0881C26.7681 16.65 26.9527 17.241 26.9528 17.8677C26.9529 18.4251 26.8478 18.6713 26.4349 19.0813C26.0432 19.4703 25.5069 19.7804 24.7897 20.0327C23.8293 20.3704 22.6381 20.4705 20.7602 20.371C19.4909 20.3038 18.2973 20.2764 18.1839 20.3118C17.944 20.3868 17.7743 20.5879 17.6807 20.9081C17.6555 20.9941 17.6225 21.0793 17.6074 21.0974C17.5685 21.1442 17.5732 21.4556 17.6132 21.4814C17.6315 21.4932 17.6465 21.5382 17.6465 21.5814C17.6465 21.6678 17.8605 21.9505 17.9259 21.9505C17.9485 21.9505 17.9963 21.979 18.0321 22.0138C18.0679 22.0486 18.127 22.0864 18.1633 22.0977C18.1996 22.1091 18.3115 22.1509 18.412 22.1908C18.5125 22.2306 18.6427 22.2632 18.7014 22.2632C18.7601 22.2632 18.8159 22.2764 18.8255 22.2925C18.8419 22.3202 19.3403 22.3447 20.7935 22.3892C21.1415 22.3999 21.5611 22.4189 21.7259 22.4315L22.0256 22.4543L22.026 23.3751C22.0264 24.2691 22.0287 24.3012 22.1055 24.4793C22.2584 24.8342 22.619 25.0777 22.9914 25.0777C23.365 25.0777 23.7266 24.8329 23.8754 24.4793C23.9477 24.3075 23.9542 24.2343 23.9769 23.3248C23.9987 22.4511 24.007 22.3492 24.0604 22.3084C24.093 22.2836 24.1506 22.2632 24.1883 22.2633C24.3459 22.2635 25.2296 22.021 25.6055 21.8744C25.8026 21.7976 26.2793 21.5842 26.3881 21.524C26.4248 21.5038 26.5596 21.4317 26.6878 21.3638C26.986 21.2061 27.2968 20.9818 27.5687 20.7284C27.6868 20.6182 27.79 20.535 27.798 20.5433C27.806 20.5517 27.6996 20.7978 27.5615 21.0903C27.0513 22.1716 26.6113 23.3537 26.326 24.4097C26.0809 25.3173 25.8682 26.3285 25.8764 26.5475C25.8805 26.6569 25.7695 27.6886 25.7508 27.7142C25.7317 27.7407 25.2105 27.8604 24.7533 27.9434C24.1236 28.0577 23.2446 28.135 22.5751 28.1351C22.0807 28.1351 21.0292 28.0622 20.8063 28.0124C20.7559 28.0012 20.5736 27.8426 20.3734 27.6358C19.9078 27.155 19.6973 26.9728 19.245 26.6594C18.5581 26.1833 17.5942 25.7371 16.9173 25.5817C16.4198 25.4675 15.8164 25.387 15.0657 25.3347C14.613 25.3031 14.4698 25.2236 13.8906 24.6823C11.31 22.2704 9.7491 18.8985 9.55396 15.3138C9.52339 14.7518 9.54094 13.7415 9.59049 13.2116ZM11.3067 34.0077C11.4209 34.6164 11.6089 35.0138 11.9482 35.364C12.3853 35.8153 12.83 35.9936 13.5172 35.9933C13.7405 35.9932 14.0028 35.9702 14.1465 35.938C14.2821 35.9076 14.3996 35.8898 14.4077 35.8983C14.4233 35.9145 13.4721 37.1517 13.4164 37.1876C13.3592 37.2245 13.3817 37.3758 13.4558 37.4532L13.5277 37.5282L14.996 37.5069L16.4643 37.4855L16.5405 37.3937C16.6254 37.2913 16.616 37.1895 16.5131 37.0961C16.4404 37.0302 15.513 35.8745 15.5242 35.8639C15.5285 35.8599 15.6293 35.8793 15.7483 35.9069C16.0875 35.9856 16.7108 35.977 17.0238 35.8893C17.7655 35.6815 18.2717 35.166 18.5132 34.3725C18.6167 34.0327 18.6414 33.2884 18.5645 32.8263C18.298 31.2227 17.1492 29.4847 15.6853 28.4702C15.3171 28.2151 14.9812 28.0312 14.8832 28.0312C14.795 28.0312 14.2591 28.3669 13.9091 28.6414C12.6473 29.6313 11.6671 31.186 11.3692 32.6699C11.315 32.9399 11.2734 33.8303 11.3067 34.0077ZM16.263 65.4364C16.3194 65.36 16.4316 65.1958 16.5124 65.0716C16.5933 64.9474 16.713 64.7727 16.7783 64.6834C16.8437 64.594 16.9722 64.4082 17.0637 64.2704C17.1553 64.1326 17.3602 63.8304 17.5191 63.5989C17.678 63.3673 17.8578 63.1023 17.9187 63.0099C17.9796 62.9175 18.0894 62.7579 18.1627 62.6552C18.2967 62.4675 18.5865 62.0421 18.8953 61.5797C19.1806 61.1527 19.5929 60.5493 20.0589 59.8769C20.3811 59.4121 20.6266 59.0526 20.7945 58.7997C20.8961 58.6469 21.0387 58.4358 21.1115 58.3307C21.1842 58.2256 21.3207 58.0223 21.4147 57.8789C21.5087 57.7356 21.6326 57.5558 21.6901 57.4794C21.7476 57.4029 21.8659 57.2309 21.953 57.0971C22.0401 56.9634 22.2461 56.6585 22.4109 56.4196C23.2771 55.1635 23.609 54.6782 23.7648 54.439C23.8334 54.3339 23.9978 54.0915 24.1303 53.9004C24.2628 53.7093 24.4016 53.506 24.4387 53.4487C24.4759 53.3914 24.5775 53.2424 24.6646 53.1177C24.7517 52.993 24.8679 52.821 24.9228 52.7355C24.9777 52.65 25.0306 52.5722 25.0403 52.5626C25.0658 52.5376 25.5344 51.8571 25.6721 51.645C25.7363 51.5463 25.8865 51.3254 26.0062 51.1541C26.1257 50.9828 26.2483 50.8036 26.2785 50.7558C26.3087 50.708 26.4091 50.5595 26.5017 50.4257C26.5943 50.2919 26.7531 50.0574 26.8545 49.9045C27.1034 49.5296 27.5984 48.8085 27.794 48.5358C27.9379 48.3352 28.0625 48.1505 28.4194 47.6076L28.536 47.4304L28.8108 47.4081C28.9619 47.3958 29.1642 47.3856 29.2604 47.3855L29.4352 47.3853L29.4356 47.5678C29.4363 47.957 29.6123 48.3312 29.9699 48.704C30.2578 49.0042 30.5839 49.2456 30.9094 49.3995C31.2402 49.5561 31.3776 49.5977 31.7729 49.6613C32.115 49.7164 32.3505 49.7078 32.7158 49.6268C32.7786 49.6129 32.7866 49.6447 32.8431 50.1307L32.9035 50.6494L32.7836 50.8329C32.6196 51.0838 32.0228 51.9847 31.8793 52.1978C31.8149 52.2934 31.6668 52.5123 31.5502 52.6843C31.4336 52.8563 31.2353 53.1533 31.1095 53.3445C30.7952 53.822 30.4964 54.2681 30.2834 54.578C30.1848 54.7213 29.9917 55.0106 29.8542 55.2208C29.7167 55.431 29.5352 55.7046 29.4509 55.8289C29.3665 55.9531 29.2617 56.1095 29.218 56.1763C29.1742 56.2432 29.0787 56.384 29.0058 56.4891C28.9329 56.5942 28.7451 56.8756 28.5885 57.1145C28.4319 57.3534 28.229 57.6583 28.1374 57.7921C27.8622 58.1946 27.4702 58.7816 26.9278 59.6035C26.8034 59.7921 26.6355 60.0402 26.5546 60.1549C26.4226 60.3419 26.0344 60.9231 25.9053 61.127C25.7919 61.3059 25.4499 61.8202 25.3724 61.9282C25.3266 61.992 25.1993 62.1788 25.0894 62.3433C24.9795 62.5077 24.8436 62.7081 24.7874 62.7885C24.7312 62.8689 24.5577 63.1301 24.4017 63.369C24.2457 63.6079 24.0519 63.901 23.971 64.0205C23.8901 64.1399 23.7311 64.3744 23.6176 64.5417C23.5041 64.7089 23.2985 65.0177 23.1606 65.228C23.0227 65.4382 22.8201 65.7431 22.7104 65.9055C22.6006 66.068 22.4546 66.2869 22.3859 66.392C22.3173 66.4971 22.2514 66.5909 22.2395 66.6005C22.2277 66.61 22.0915 66.8133 21.9368 67.0522C21.6586 67.4818 21.526 67.6813 21.2621 68.0671C21.1876 68.1762 21.0301 68.4069 20.9122 68.5796C20.7944 68.7524 20.6918 68.8938 20.6844 68.8938C20.6769 68.8938 20.631 68.8616 20.5823 68.8223C20.5336 68.783 20.395 68.6853 20.2742 68.6052C20.1534 68.525 19.9014 68.3578 19.7142 68.2336C19.5269 68.1094 19.2127 67.8983 19.0158 67.7645C18.819 67.6307 18.6334 67.5056 18.6035 67.4865C18.5736 67.4674 18.4921 67.4109 18.4225 67.3609C18.2465 67.2345 17.419 66.6789 17.0534 66.4415C16.9378 66.3665 16.7925 66.266 16.7306 66.2182C16.6686 66.1705 16.4904 66.0476 16.3346 65.9451L16.0513 65.7589L16.1059 65.6672C16.136 65.6167 16.2067 65.5129 16.263 65.4364ZM26.938 27.3536C26.9986 26.4442 27.0638 25.9346 27.1893 25.3904C27.3408 24.7335 27.7863 23.3131 27.9466 22.976C28.0009 22.8615 28.0798 22.6739 28.1217 22.559C28.4258 21.7258 29.2208 20.2756 29.8994 19.316C30.4894 18.4817 31.4176 17.4429 32.2325 16.7047C32.3882 16.5637 32.5472 16.4159 32.5858 16.3762C32.6245 16.3365 32.6919 16.2758 32.7357 16.2412C32.7795 16.2066 32.9475 16.0737 33.1092 15.9459C33.2708 15.818 33.4506 15.6781 33.5088 15.6351C33.9291 15.3238 33.9982 15.2755 34.3861 15.0212C34.883 14.6955 36.3461 13.8891 36.4403 13.8891C36.4525 13.8891 36.526 13.8591 36.6037 13.8223C37.3898 13.4499 39.0357 12.9194 39.692 12.8269C39.7744 12.8153 39.8868 12.7919 39.9418 12.7751C39.9967 12.7582 40.3863 12.6958 40.8076 12.6365C41.4629 12.5441 41.7106 12.526 42.5226 12.511C43.0446 12.5014 43.6815 12.509 43.9379 12.528C44.4488 12.5659 45.5735 12.6978 45.653 12.7292C45.7727 12.7766 46.0514 12.8408 46.2357 12.8635C46.3456 12.8771 46.4505 12.9006 46.4688 12.9158C46.4872 12.931 46.5921 12.9618 46.702 12.9842C46.8118 13.0066 47.0216 13.0631 47.1682 13.1098C47.3147 13.1565 47.562 13.2352 47.7176 13.2847C47.8733 13.3343 48.1431 13.4302 48.3171 13.4979C48.4911 13.5655 48.7233 13.6521 48.8332 13.6901C48.9431 13.7282 49.0567 13.7807 49.0856 13.8069C49.1145 13.833 49.1495 13.8544 49.1633 13.8544C49.2318 13.8544 50.3074 14.3843 50.515 14.5204C50.5607 14.5503 50.778 14.6865 50.9978 14.823C51.9229 15.3972 52.1398 15.5567 53.1066 16.3736C53.5721 16.7669 54.4403 17.6415 54.8829 18.163C55.6816 19.1042 56.5455 20.4257 57.0748 21.5161C57.3127 22.0063 57.6081 22.6575 57.6081 22.6916C57.6081 22.7033 57.6456 22.7983 57.6914 22.9027C57.7372 23.0072 57.7747 23.1132 57.7747 23.1383C57.7747 23.1635 57.8196 23.2831 57.8746 23.4043C57.9295 23.5254 57.9745 23.6461 57.9745 23.6724C57.9745 23.6987 57.9961 23.7716 58.0225 23.8343C58.1257 24.0793 58.3713 24.9956 58.4582 25.4599C58.4814 25.5841 58.517 25.7327 58.5372 25.79C58.5706 25.8847 58.633 26.2825 58.758 27.1973C58.8812 28.0988 58.8807 30.2737 58.7572 31.1978C58.6208 32.2178 58.5698 32.5418 58.5282 32.6526C58.5031 32.7195 58.4716 32.868 58.4582 32.9827C58.4449 33.0973 58.4186 33.2212 58.3998 33.2579C58.381 33.2947 58.3396 33.4354 58.3079 33.5707C58.2246 33.9262 57.9502 34.8262 57.8556 35.0545C57.8111 35.162 57.7742 35.2636 57.7735 35.2803C57.7729 35.297 57.7434 35.3733 57.708 35.4497C57.6726 35.5262 57.6432 35.6014 57.6426 35.6169C57.6419 35.6325 57.5955 35.7497 57.5392 35.8775C57.483 36.0053 57.4169 36.1568 57.3923 36.2141C57.3213 36.3796 57.0891 36.8567 56.9778 37.0654C56.9218 37.1706 56.8461 37.3191 56.8096 37.3955C56.773 37.472 56.7245 37.5658 56.7016 37.604C56.6788 37.6422 56.5863 37.7986 56.496 37.9515C56.3219 38.2463 56.076 38.6364 55.9509 38.8161C55.9094 38.8757 55.8494 38.9642 55.8177 39.0129C55.2503 39.8821 53.6981 41.5926 52.9414 42.1825C52.8981 42.2163 52.8017 42.2945 52.7271 42.3562C52.6525 42.4181 52.5498 42.4999 52.499 42.5381C52.4481 42.5763 52.3567 42.6467 52.2957 42.6945C51.9159 42.9924 51.2586 43.4453 51.0478 43.5543C50.9556 43.602 50.8808 43.6495 50.7314 43.7553C50.6765 43.7943 50.594 43.845 50.5483 43.8681C50.5025 43.8912 50.4425 43.9256 50.4151 43.9445C50.3876 43.9634 50.2377 44.0426 50.082 44.1205C49.9264 44.1984 49.7765 44.2758 49.749 44.2927C49.7216 44.3094 49.5867 44.3723 49.4493 44.4324C49.3119 44.4924 49.1396 44.571 49.0663 44.6071C48.8486 44.7141 48.1378 44.9804 47.651 45.1373C47.4954 45.1875 47.2481 45.2672 47.1016 45.3143C46.955 45.3614 46.7489 45.4162 46.6435 45.436C46.5382 45.4558 46.4258 45.4861 46.3938 45.5034C46.3618 45.5207 46.2607 45.5454 46.1691 45.5583C46.0776 45.5711 45.8003 45.6195 45.5531 45.6657C44.6386 45.8368 43.8585 45.9027 42.789 45.8991C41.9008 45.8961 41.7285 45.8855 40.9908 45.7884C40.542 45.7293 40.1299 45.6665 40.075 45.6488C40.02 45.6312 39.8477 45.5992 39.692 45.5778C39.5363 45.5564 39.379 45.5253 39.3424 45.5087C39.3057 45.4921 39.1783 45.4559 39.0593 45.4284C38.6985 45.3449 38.1496 45.1921 38.0436 45.1456C37.9887 45.1215 37.8688 45.0815 37.7772 45.0568C37.6856 45.032 37.5957 45.0011 37.5774 44.9881C37.5591 44.975 37.4467 44.9274 37.3276 44.8821C37.2086 44.8369 37.0737 44.7797 37.0279 44.7551C36.9821 44.7304 36.9219 44.7102 36.8942 44.71C36.8665 44.7099 36.7843 44.6766 36.7117 44.6359C36.639 44.5953 36.5221 44.5409 36.4519 44.515C36.2529 44.4418 35.0767 43.8193 34.7801 43.6302C34.392 43.383 34.3341 43.3448 34.1197 43.195C34.0129 43.1204 33.877 43.028 33.8178 42.9898C33.6852 42.9042 33.3376 42.6436 33.1689 42.5034C33.1 42.446 33.0023 42.3679 32.9519 42.3296C32.9014 42.2914 32.8259 42.2289 32.7841 42.1906C32.7423 42.1524 32.6607 42.0821 32.6028 42.0343C32.142 41.6542 31.0326 40.5002 30.5986 39.9495C29.9731 39.1558 29.6951 38.7512 29.1658 37.8646C28.9024 37.4235 28.3706 36.3693 28.2367 36.023C28.2034 35.937 28.0952 35.6634 27.9961 35.415C27.897 35.1665 27.759 34.7756 27.6894 34.5463C27.6198 34.317 27.5441 34.0824 27.5213 34.0251C27.4984 33.9677 27.4244 33.6785 27.3567 33.3823C27.289 33.086 27.2125 32.7655 27.1866 32.6699C27.1432 32.5096 27.071 32.0491 26.9524 31.1758C26.8381 30.3347 26.8328 28.9317 26.938 27.3536ZM29.2842 30.5156C29.3287 31.0274 29.4542 31.9401 29.4879 31.997C29.4973 32.0129 29.5248 32.1396 29.5491 32.2784C29.6366 32.7805 29.9823 34.0336 30.0693 34.1641C30.082 34.1832 30.1188 34.2848 30.1511 34.3899C30.1834 34.495 30.2739 34.7242 30.3521 34.8993C30.4304 35.0743 30.5053 35.2541 30.5187 35.2989C30.5574 35.4289 30.9474 36.1841 31.2247 36.6659C31.6024 37.3222 31.881 37.7365 32.3228 38.299C32.648 38.713 33.1354 39.2787 33.3107 39.4456C34.0262 40.1269 34.4559 40.5079 34.8036 40.7692C35.1514 41.0307 35.7948 41.4762 35.9623 41.5717C36.063 41.6291 36.2803 41.7542 36.4451 41.8497C36.7934 42.0515 37.5863 42.4512 37.6383 42.4512C37.6495 42.4512 37.7378 42.4886 37.8345 42.5343C38.0176 42.6207 38.7631 42.8884 39.1092 42.992C39.2191 43.0249 39.399 43.0786 39.5089 43.1114C40.073 43.2797 40.9347 43.4342 41.7401 43.5113C42.3565 43.5703 43.6105 43.579 44.1273 43.5279C44.5133 43.4897 45.778 43.2946 45.8216 43.2664C45.8363 43.257 45.913 43.2343 45.9921 43.2162C46.3514 43.1338 46.5784 43.0781 46.6936 43.0441C46.7623 43.0238 46.8672 42.9931 46.9267 42.9757C47.1601 42.908 47.5029 42.7878 47.5345 42.7627C47.5528 42.7482 47.6427 42.713 47.7343 42.6844C48.1726 42.5478 49.6085 41.8335 50.0487 41.533C50.1128 41.4893 50.3451 41.3312 50.5649 41.1817C51.0604 40.8448 51.5447 40.4735 51.7638 40.2627C51.8553 40.1745 51.9827 40.0584 52.0468 40.0046C52.5255 39.6032 53.6834 38.2886 54.0542 37.7256C54.305 37.3447 54.7564 36.6218 54.8676 36.4226C55.0282 36.1353 55.5921 34.9575 55.6264 34.8378C55.6395 34.7922 55.6844 34.6688 55.7262 34.5637C55.8952 34.138 55.9766 33.9037 56.0761 33.556C56.1335 33.3553 56.1928 33.1521 56.2078 33.1043C56.2478 32.9769 56.2956 32.7753 56.3602 32.4615C56.3917 32.3086 56.4378 32.0897 56.4625 31.975C56.6839 30.9509 56.7665 29.2742 56.6593 27.9791C56.6012 27.2771 56.4387 26.268 56.2984 25.7379C56.088 24.943 56.0331 24.7468 56.0073 24.6984C55.9911 24.6681 55.9391 24.5183 55.8917 24.3654C55.6804 23.6837 54.9961 22.204 54.6623 21.7072C54.6046 21.6212 54.548 21.5274 54.5366 21.4988C54.5251 21.4701 54.4467 21.345 54.3624 21.2208C54.278 21.0966 54.1685 20.9324 54.119 20.8559C53.7494 20.2848 52.8642 19.2523 52.1634 18.5749C51.832 18.2547 51.0103 17.5876 50.6288 17.3291C49.8965 16.8328 48.7635 16.2068 48.1339 15.9505C46.9747 15.4786 46.3984 15.3104 45.2866 15.1197C44.0407 14.906 43.1979 14.858 42.0448 14.9349C41.2757 14.9863 39.9637 15.2131 39.4629 15.3814C39.346 15.4207 39.2293 15.4528 39.2035 15.4528C39.1366 15.4528 38.761 15.5772 38.4082 15.7162C38.2425 15.7815 38.0962 15.835 38.0831 15.835C38.0398 15.835 37.2177 16.2161 36.8026 16.4286C36.1505 16.7624 35.1801 17.392 34.6524 17.8236C33.7368 18.5724 33.049 19.2721 32.2492 20.2682C31.9713 20.6142 31.3136 21.6183 31.1017 22.02C31.0261 22.1633 30.9502 22.304 30.933 22.3327C30.8847 22.4132 30.5531 23.1533 30.4347 23.4446C30.2751 23.8376 29.9801 24.6895 29.853 25.1251C29.7909 25.3379 29.7006 25.645 29.6525 25.8074C29.5243 26.2398 29.5067 26.3175 29.4672 26.6239C29.4475 26.7768 29.418 26.9488 29.4016 27.0062C29.3852 27.0635 29.3622 27.2274 29.3503 27.3705C29.3385 27.5135 29.3149 27.709 29.2979 27.8048C29.2436 28.1112 29.2344 29.9415 29.2842 30.5156ZM30.1683 28.2727C30.3712 25.4646 31.3818 22.8409 33.0887 20.6907C34.22 19.2656 35.5795 18.1359 37.1778 17.2928C38.512 16.589 39.8286 16.1629 41.3238 15.9509C41.6952 15.8982 41.9906 15.8873 43.0222 15.8886C44.3249 15.8902 44.6004 15.9137 45.4865 16.0993C48.7006 16.7727 51.5658 18.7156 53.4493 21.4988C54.6896 23.3316 55.4172 25.2873 55.718 27.5965C55.8157 28.347 55.8227 30.011 55.7313 30.7589C55.5349 32.3647 55.1689 33.6865 54.5478 35.0327C52.5935 39.2687 48.7208 42.0964 44.221 42.5727C43.6326 42.635 42.4102 42.6359 41.7779 42.5745C40.5483 42.4552 39.3991 42.1673 38.2224 41.6837C37.635 41.4423 36.7045 40.9523 36.1787 40.6073C35.6746 40.2767 34.839 39.6306 34.5359 39.3371L34.3249 39.1329L35.5807 37.4998C36.2713 36.6016 37.1604 35.4413 37.5565 34.9213C37.9526 34.4014 38.2924 33.9753 38.3116 33.9744C38.3307 33.9736 38.533 34.1126 38.7611 34.2834C38.9892 34.4541 39.3107 34.6938 39.4756 34.8162C39.6404 34.9385 40.5096 35.5843 41.407 36.2512C42.3045 36.9181 43.0907 37.4914 43.1541 37.5252C43.2923 37.5989 43.4512 37.6038 43.6 37.5389C43.6757 37.5059 44.0963 37.0357 44.9601 36.0187C46.2901 34.4527 49.1879 31.0363 49.6325 30.5101L49.8988 30.1948L50.0023 30.2857C50.0592 30.3357 50.3183 30.5754 50.5782 30.8184C51.085 31.2923 51.1726 31.3401 51.3942 31.2638C51.5714 31.2027 51.662 31.0661 51.7081 30.7899C51.7721 30.4072 52.0573 28.6827 52.2967 27.232C52.4181 26.4963 52.5686 25.5912 52.6313 25.2208C52.6947 24.8459 52.7359 24.5071 52.7241 24.4564C52.6757 24.2485 52.5011 24.1054 52.2955 24.105C52.104 24.1047 51.9964 24.1397 50.3484 24.7397C49.0344 25.218 48.3657 25.4608 46.7686 26.0391C46.4995 26.1364 46.3009 26.2301 46.2439 26.2863C46.0817 26.4461 46.065 26.6775 46.1963 26.942C46.2263 27.0023 46.4722 27.251 46.7428 27.4948C47.0134 27.7386 47.2631 27.9656 47.2978 27.9992C47.3589 28.0586 47.3461 28.0772 46.8672 28.6278C46.5957 28.9399 46.221 29.3672 46.0345 29.5775C45.848 29.7877 45.3075 30.4064 44.8333 30.9524C43.3103 32.7062 42.8773 33.1912 42.838 33.1872C42.8168 33.1851 42.5387 32.9956 42.2199 32.7662C41.1407 31.9895 41.0412 31.9182 40.6744 31.6579C40.4729 31.5149 40.1507 31.2845 39.9584 31.146C39.5138 30.8256 38.1845 29.8737 37.8705 29.6509C37.6067 29.4637 37.4364 29.431 37.2804 29.5377C37.1774 29.608 36.5499 30.3729 33.9976 33.5386C33.7511 33.8444 33.4591 34.2043 33.3488 34.3384C33.2385 34.4726 32.8804 34.9143 32.5528 35.32C32.2254 35.7258 31.9478 36.0578 31.9361 36.0578C31.9048 36.0578 31.5614 35.4024 31.3674 34.9724C30.7779 33.6658 30.4077 32.3306 30.2357 30.8908C30.1996 30.5889 30.1648 30.2637 30.1583 30.1682C30.1313 29.7699 30.1369 28.7076 30.1683 28.2727ZM30.7769 46.8245C31.1982 46.1832 31.3733 45.9171 32.066 44.8661C32.3682 44.4075 32.6581 43.9659 32.7102 43.8846C32.7623 43.8034 32.8129 43.7369 32.8227 43.7369C32.8325 43.7369 33.0147 43.8595 33.2275 44.0093C33.7216 44.3571 34.2831 44.713 34.7398 44.9679C34.9901 45.1076 35.09 45.1806 35.0692 45.2084C35.0527 45.2304 34.5772 45.8895 34.0125 46.673C33.4477 47.4566 32.8892 48.2306 32.7712 48.393C32.5815 48.6542 32.5389 48.6935 32.4029 48.7331C31.8914 48.882 30.938 48.4851 30.5222 47.9503C30.3951 47.7869 30.3939 47.7823 30.4153 47.5635C30.4358 47.3538 30.4551 47.3144 30.7769 46.8245ZM32.707 36.5856C32.8397 36.4195 32.9606 36.2742 32.9758 36.2627C32.9909 36.2511 33.1034 36.1154 33.2257 35.9611C33.9555 35.0403 34.1968 34.7397 34.3321 34.5828C34.4154 34.4863 34.5499 34.3213 34.6309 34.2162C34.712 34.1111 34.8089 33.9938 34.8462 33.9556C34.8836 33.9174 35.1052 33.6437 35.3387 33.3475C35.5722 33.0513 35.8608 32.6917 35.9801 32.5483C36.0994 32.405 36.4017 32.0297 36.652 31.7144C36.9022 31.3991 37.1176 31.1364 37.1305 31.1307C37.1434 31.1251 37.247 30.9969 37.3607 30.8461L37.5673 30.5717L37.922 30.8292C38.1171 30.9709 38.4865 31.2351 38.7429 31.4164C38.9993 31.5976 39.3815 31.8716 39.5921 32.025C39.8027 32.1785 40.2074 32.4681 40.4912 32.6686C40.7751 32.8691 41.1348 33.127 41.2905 33.2417C41.6521 33.5081 42.319 33.9787 42.4059 34.0289C42.4426 34.0501 42.5736 34.1321 42.6969 34.2113C42.9278 34.3595 43.0336 34.3841 43.1245 34.3106C43.1533 34.2873 43.2682 34.1589 43.3799 34.0251C43.4916 33.8913 43.6478 33.7092 43.7271 33.6203C43.8064 33.5314 43.9762 33.3361 44.1044 33.1863C44.2327 33.0365 44.443 32.7965 44.5717 32.6529C44.7005 32.5094 44.8721 32.3138 44.9529 32.2182C45.0338 32.1227 45.2372 31.8881 45.4051 31.697C45.5729 31.5059 45.8046 31.2401 45.9199 31.1063C46.0352 30.9725 46.2074 30.7771 46.3025 30.672C46.3977 30.5669 46.5395 30.4027 46.6176 30.3071C46.6957 30.2116 46.859 30.0234 46.9805 29.8889C47.102 29.7545 47.4112 29.4026 47.6675 29.1071C47.9238 28.8116 48.1735 28.5269 48.2225 28.4745C48.3116 28.3791 48.3837 28.1326 48.3837 27.9235C48.3837 27.804 48.3067 27.6311 48.2348 27.5891C48.2079 27.5734 48.1217 27.4975 48.0433 27.4206C47.9649 27.3436 47.8034 27.1972 47.6843 27.0952C47.4108 26.8608 47.3951 26.8328 47.51 26.7856C47.8835 26.632 48.415 26.4341 49.0681 26.2054C49.788 25.9533 50.1521 25.8208 51.1477 25.4485C51.3766 25.3629 51.5954 25.2832 51.6339 25.2715L51.7038 25.25L51.6427 25.6764C51.609 25.9109 51.5671 26.1575 51.5494 26.2244C51.5018 26.4047 51.4941 26.4501 51.3646 27.3189C51.299 27.7584 51.2312 28.165 51.2139 28.2223C51.1965 28.2796 51.1306 28.6682 51.0674 29.0857C51.0042 29.5032 50.9443 29.8533 50.9344 29.8637C50.9244 29.8742 50.8896 29.8515 50.8571 29.8134C50.8246 29.7753 50.7025 29.6597 50.5859 29.5565C50.4692 29.4534 50.3233 29.3195 50.2618 29.2589C50.1181 29.1177 49.9503 29.0603 49.7659 29.0892C49.6486 29.1075 49.595 29.1426 49.4824 29.2751C49.406 29.365 49.272 29.5166 49.1846 29.6122C49.036 29.7747 48.1414 30.8281 47.8836 31.1442C47.8198 31.2224 47.0932 32.082 46.269 33.0545C45.4448 34.0269 44.4724 35.1747 44.108 35.6052C43.7436 36.0357 43.4199 36.4164 43.3885 36.4514C43.3263 36.5206 43.3286 36.5219 42.7557 36.0874C42.655 36.011 42.5201 35.911 42.456 35.8652C42.3919 35.8195 42.2645 35.7259 42.173 35.6574C42.0814 35.5888 41.954 35.495 41.8899 35.4489C41.8258 35.4028 41.6984 35.3089 41.6068 35.2404C41.5153 35.1718 41.3879 35.0781 41.3238 35.0322C41.2597 34.9862 41.0799 34.854 40.9242 34.7385C40.7685 34.623 40.6036 34.5015 40.5579 34.4686C40.5121 34.4356 40.3626 34.3224 40.2257 34.2169C40.0888 34.1114 39.9435 34.0016 39.9028 33.973C39.8393 33.9282 39.4496 33.6367 38.8928 33.2175C38.4644 32.895 38.346 32.8263 38.2185 32.8263C38.0192 32.8263 37.9258 32.8994 37.6786 33.249C37.5524 33.4274 37.4009 33.6281 37.3418 33.695C37.2829 33.7619 37.1544 33.9275 37.0563 34.063C36.9583 34.1985 36.7584 34.4643 36.6122 34.6537C36.466 34.8431 36.1181 35.2951 35.8391 35.6582C35.5601 36.0213 35.2495 36.42 35.1489 36.5442C35.0484 36.6685 34.9265 36.8326 34.8782 36.9091C34.8298 36.9855 34.7407 37.1028 34.6803 37.1697C34.6198 37.2366 34.4826 37.4106 34.3755 37.5564C34.2683 37.7022 34.0692 37.9662 33.933 38.1432L33.6855 38.4649L33.4668 38.2115C33.2721 37.9858 32.4656 36.9288 32.4656 36.8993C32.4656 36.8928 32.5742 36.7517 32.707 36.5856ZM34.7834 25.3209C34.8336 25.6464 34.8853 25.8257 35.0032 26.0828C35.198 26.5081 35.5115 26.8235 35.9716 27.0572C36.4927 27.3219 36.7886 27.3858 37.4941 27.3855C38.0156 27.3853 38.1189 27.375 38.4765 27.2876C38.9721 27.1665 39.482 26.9783 39.8784 26.7702C40.8847 26.2421 41.794 25.3327 42.174 24.4744C42.8452 22.9587 42.2417 21.5711 40.7202 21.1315C40.3368 21.0208 39.5941 20.9794 39.1548 21.0443C37.8825 21.2321 36.7015 21.8575 35.8281 22.806C35.4699 23.1949 35.2735 23.4824 35.0816 23.8983C34.8654 24.3671 34.7333 24.9968 34.7834 25.3209ZM35.7328 24.6988C35.8038 24.3713 36.0873 23.8762 36.4139 23.5096C37.0821 22.7593 38.1095 22.1846 39.1053 22.0041C39.4768 21.9367 40.0708 21.936 40.3718 22.0026C40.8686 22.1124 41.3052 22.43 41.4606 22.7948C41.5682 23.0474 41.5695 23.5058 41.4635 23.8298C41.3771 24.0937 41.128 24.5293 40.9165 24.7861C40.2789 25.5605 39.245 26.1774 38.2337 26.387C37.8693 26.4625 37.0912 26.4711 36.8281 26.4024C36.5669 26.3343 36.2012 26.1497 36.0445 26.0068C35.7263 25.7168 35.6142 25.2462 35.7328 24.6988ZM43.5848 50.1164C43.6983 50.3106 43.8121 50.3321 44.6706 50.322C46.3434 50.3024 47.7773 50.0787 49.466 49.574C49.9131 49.4404 50.9807 49.0427 51.3475 48.873C51.4299 48.8349 51.5273 48.7903 51.5639 48.7739C52.1932 48.4926 52.9303 48.0985 53.6738 47.6459C53.8561 47.535 54.2915 47.2455 54.4778 47.1113C54.8579 46.8377 54.8885 46.8149 55.0929 46.6537C55.7044 46.1715 55.8629 46.036 56.3922 45.5423C56.9764 44.9975 57.8302 44.0302 58.3408 43.3348C58.7836 42.7316 59.1507 42.1419 59.5072 41.461C59.801 40.8998 59.8088 40.8713 59.7268 40.6665C59.6572 40.4926 59.525 40.4011 59.3436 40.4013C59.116 40.4015 59.0086 40.4876 58.8628 40.787C58.794 40.9283 58.6985 41.1143 58.6505 41.2003C58.6026 41.2863 58.5467 41.388 58.5264 41.4262C58.3568 41.7453 57.8576 42.5018 57.4953 42.9888C57.0422 43.5979 56.2251 44.4968 55.681 44.9845C55.5276 45.122 55.383 45.2532 55.3596 45.2761C55.3362 45.2991 55.2669 45.3596 55.2055 45.4106C55.1441 45.4616 55.0115 45.5717 54.9107 45.6552C53.9646 46.4403 52.6153 47.288 51.4469 47.8313C51.3098 47.8951 51.1527 47.9686 51.0977 47.9946C50.6719 48.1966 49.5704 48.5998 49.0164 48.7566C48.8973 48.7902 48.7625 48.8305 48.7167 48.8461C48.6709 48.8616 48.4611 48.9142 48.2505 48.9628C46.8692 49.2821 45.8934 49.4012 44.554 49.4141C44.0232 49.4192 43.7824 49.4341 43.728 49.4653C43.5363 49.5754 43.4631 49.9081 43.5848 50.1164Z" fill="black"/>
</svg>
