<svg width="166" height="166" viewBox="0 0 166 166" fill="none" xmlns="http://www.w3.org/2000/svg">
<path d="M73.7464 42.9207L73.9308 44.7208L74.6968 43.0814L90.9132 8.3752L82.0646 45.5624L81.6431 47.3337L82.9101 46.026L109.679 18.3986L89.0606 50.7215L88.0719 52.2715L89.7095 51.4358L124.115 33.876L93.9749 57.8396L92.5227 58.9943L94.3585 58.7258L132.668 53.1213L96.2738 66.1446L94.5187 66.7726L96.3525 67.1072L134.425 74.0538L95.7081 74.7348L93.8473 74.7675L95.474 75.6718L129.2 94.419L92.3405 82.6788L90.5801 82.1181L91.8175 83.4901L117.549 112.021L86.5372 89.1163L85.0657 88.0295L85.7798 89.7137L100.719 124.949L78.9272 93.3511L77.8973 91.8578L78.0166 93.6678L80.5293 131.79L70.3341 94.9252L69.8522 93.1827L69.3703 94.9252L59.1751 131.79L61.6878 93.6678L61.8071 91.8578L60.7772 93.3511L38.9853 124.949L53.9246 89.7137L54.6387 88.0295L53.1672 89.1163L22.1558 112.021L47.8869 83.4901L49.1243 82.1181L47.3639 82.6788L10.5043 94.419L44.2304 75.6718L45.8571 74.7675L43.9963 74.7348L5.27912 74.0538L43.3519 67.1072L45.1857 66.7726L43.4306 66.1446L7.03652 53.1213L45.3459 58.7258L47.1817 58.9943L45.7295 57.8396L15.5897 33.876L49.9949 51.4358L51.6325 52.2715L50.6438 50.7215L30.0255 18.3986L56.7943 46.026L58.0613 47.3337L57.6398 45.5624L48.7912 8.37521L65.0076 43.0814L65.7736 44.7208L65.958 42.9207L69.8522 4.90647L73.7464 42.9207Z" fill="#B7BDC0" stroke="#1E1E1E"/>
<path d="M131.485 73.1373C131.485 88.8531 118.546 101.606 102.567 101.606C86.5884 101.606 73.6484 88.8531 73.6484 73.1373C73.6484 57.4215 86.5884 44.6682 102.567 44.6682C118.546 44.6682 131.485 57.4215 131.485 73.1373Z" fill="#5FC194" stroke="#1E1E1E"/>
<path d="M73.8056 134.04C72.1438 118.41 83.6651 104.399 99.5565 102.761C115.448 101.122 129.666 112.479 131.328 128.11C132.99 143.741 121.469 157.751 105.577 159.39C89.6857 161.028 75.4674 149.671 73.8056 134.04Z" fill="#383F43" stroke="#1E1E1E"/>
<path d="M133.437 132.006C117.458 132.006 104.518 119.252 104.518 103.537C104.518 87.8209 117.458 75.0676 133.437 75.0676C149.415 75.0676 162.355 87.8209 162.355 103.537C162.355 119.252 149.415 132.006 133.437 132.006Z" fill="#383F43" stroke="#1E1E1E"/>
<path d="M71.5894 75.2219C87.4809 73.5836 101.699 84.9406 103.361 100.571C105.023 116.202 93.5015 130.212 77.61 131.851C61.7186 133.489 47.5003 122.132 45.8385 106.501C44.1767 90.8708 55.6979 76.8602 71.5894 75.2219Z" fill="#5FC194" stroke="#1E1E1E"/>
<circle r="28.6947" transform="matrix(0.712529 0.701643 -0.712529 0.701643 124.396 82.0414)" fill="#B7BDC0" stroke="#1E1E1E"/>
<path d="M60.3269 105.081C70.3804 92.8658 88.5885 90.9871 100.996 100.889C113.404 110.792 115.309 128.722 105.255 140.937C95.2017 153.152 76.9936 155.031 64.5858 145.129C52.178 135.227 50.2734 117.296 60.3269 105.081Z" fill="#B7BDC0" stroke="#1E1E1E"/>
<circle r="28.6947" transform="matrix(-0.712529 0.701643 -0.712529 -0.701643 124.394 125.031)" fill="#5FC194" stroke="#1E1E1E"/>
<path d="M100.995 61.9423C113.403 71.8447 115.308 89.7749 105.254 101.99C95.2007 114.205 76.9926 116.084 64.5848 106.182C52.177 96.2794 50.2724 78.3492 60.3259 66.134C70.3794 53.9188 88.5875 52.04 100.995 61.9423Z" fill="#5FC194" stroke="#1E1E1E"/>
</svg>
