<svg width="90" height="54" viewBox="0 0 90 54" fill="none" xmlns="http://www.w3.org/2000/svg">
<path d="M44.4131 13.0873V52.5724H56.7331C56.2637 49.94 58.4931 47.0883 59.6664 45.9915C63.8904 43.8857 67.293 45.5528 68.4664 46.6496C69.8744 47.1761 71.0086 50.8175 71.3997 52.5724H81.9597V25.5909V13.0873H70.2264C69.757 16.7726 67.6841 19.01 66.7064 19.6681C63.8904 21.2475 60.8397 20.3262 59.6664 19.6681C56.8504 18.6152 55.7553 14.8422 55.5597 13.0873H44.4131Z" fill="white" stroke="white" stroke-linecap="round" stroke-linejoin="round"/>
<path d="M32.6786 7.82231C32.6786 11.4568 30.052 14.4032 26.812 14.4032C23.5719 14.4032 20.9453 11.4568 20.9453 7.82231C20.9453 4.1878 23.5719 1.24146 26.812 1.24146C30.052 1.24146 32.6786 4.1878 32.6786 7.82231Z" fill="#86868A"/>
<path d="M13.32 33.1588C13.32 36.975 10.5621 40.0687 7.15999 40.0687C3.75792 40.0687 1 36.975 1 33.1588C1 29.3426 3.75792 26.2489 7.15999 26.2489C10.5621 26.2489 13.32 29.3426 13.32 33.1588Z" fill="#86868A"/>
<path d="M8.04004 13.0873H44.4133V52.5724H8.04004V13.0873Z" fill="#86868A"/>
<path d="M51.4528 32.8298C51.4528 36.4643 48.5635 39.4106 44.9995 39.4106C41.4354 39.4106 39.1328 36.4643 39.1328 32.8298C39.1328 29.1952 41.4354 26.2489 44.9995 26.2489C48.5635 26.2489 51.4528 29.1952 51.4528 32.8298Z" fill="white"/>
<path d="M88.9999 32.8298C88.9999 36.4643 86.3733 39.4106 83.1333 39.4106C79.8932 39.4106 77.2666 36.4643 77.2666 32.8298C77.2666 29.1952 79.8932 26.2489 83.1333 26.2489C86.3733 26.2489 88.9999 29.1952 88.9999 32.8298Z" fill="white"/>
<path d="M17.4393 37.6554H15.6182L15.6302 36.7093H17.4393C18.0623 36.7093 18.5815 36.5787 18.9969 36.3176C19.4122 36.0524 19.7237 35.6828 19.9314 35.2087C20.143 34.7306 20.2489 34.1722 20.2489 33.5334V32.997C20.2489 32.4948 20.189 32.0489 20.0692 31.6592C19.9493 31.2654 19.7736 30.934 19.542 30.6648C19.3104 30.3916 19.0268 30.1847 18.6913 30.0441C18.3599 29.9035 17.9785 29.8332 17.5472 29.8332H15.5823V28.881H17.5472C18.1183 28.881 18.6394 28.9774 19.1107 29.1702C19.5819 29.3591 19.9873 29.6343 20.3267 29.9959C20.6702 30.3534 20.9338 30.7873 21.1175 31.2976C21.3012 31.8038 21.393 32.3743 21.393 33.0091V33.5334C21.393 34.1682 21.3012 34.7407 21.1175 35.2509C20.9338 35.7571 20.6682 36.189 20.3208 36.5466C19.9773 36.9042 19.562 37.1794 19.0747 37.3722C18.5915 37.561 18.0464 37.6554 17.4393 37.6554ZM16.2353 28.881V37.6554H15.0791V28.881H16.2353Z" fill="white"/>
<path d="M28.6714 36.7093V37.6554H24.0528V36.7093H28.6714ZM24.2864 28.881V37.6554H23.1303V28.881H24.2864ZM28.0604 32.6535V33.5997H24.0528V32.6535H28.0604ZM28.6115 28.881V29.8332H24.0528V28.881H28.6115Z" fill="white"/>
<path d="M32.9187 36.3236L35.4886 28.881H36.7406L33.5117 37.6554H32.6192L32.9187 36.3236ZM30.5165 28.881L33.0625 36.3236L33.3799 37.6554H32.4874L29.2645 28.881H30.5165Z" fill="white"/>
<path d="M59.441 32.9984V33.538C59.441 34.1793 59.3615 34.7541 59.2024 35.2624C59.0433 35.7707 58.8144 36.2028 58.5157 36.5586C58.2169 36.9145 57.858 37.1862 57.439 37.3739C57.0238 37.5616 56.5583 37.6554 56.0422 37.6554C55.5417 37.6554 55.082 37.5616 54.6629 37.3739C54.2478 37.1862 53.8869 36.9145 53.5804 36.5586C53.2778 36.2028 53.0431 35.7707 52.8762 35.2624C52.7094 34.7541 52.626 34.1793 52.626 33.538V32.9984C52.626 32.3571 52.7075 31.7843 52.8704 31.2799C53.0372 30.7716 53.272 30.3395 53.5746 29.9837C53.8772 29.6239 54.2361 29.3502 54.6513 29.1625C55.0703 28.9748 55.5301 28.881 56.0306 28.881C56.5466 28.881 57.0122 28.9748 57.4274 29.1625C57.8464 29.3502 58.2053 29.6239 58.504 29.9837C58.8067 30.3395 59.0375 30.7716 59.1966 31.2799C59.3595 31.7843 59.441 32.3571 59.441 32.9984ZM58.3294 33.538V32.9867C58.3294 32.4784 58.2771 32.0287 58.1723 31.6377C58.0714 31.2466 57.922 30.9182 57.7242 30.6523C57.5263 30.3864 57.2838 30.185 56.9967 30.0482C56.7135 29.9113 56.3914 29.8429 56.0306 29.8429C55.6814 29.8429 55.3652 29.9113 55.082 30.0482C54.8026 30.185 54.562 30.3864 54.3603 30.6523C54.1624 30.9182 54.0092 31.2466 53.9005 31.6377C53.7919 32.0287 53.7376 32.4784 53.7376 32.9867V33.538C53.7376 34.0503 53.7919 34.5038 53.9005 34.8988C54.0092 35.2898 54.1644 35.6202 54.3661 35.89C54.5717 36.1559 54.8142 36.3573 55.0936 36.4941C55.3768 36.631 55.693 36.6994 56.0422 36.6994C56.4069 36.6994 56.7309 36.631 57.0141 36.4941C57.2974 36.3573 57.536 36.1559 57.73 35.89C57.9279 35.6202 58.0772 35.2898 58.1781 34.8988C58.279 34.5038 58.3294 34.0503 58.3294 33.538Z" fill="black"/>
<path d="M64.2482 34.1891H61.9843V33.2682H64.2482C64.6867 33.2682 65.0417 33.1978 65.3133 33.0571C65.5848 32.9163 65.7827 32.7208 65.9069 32.4705C66.0349 32.2203 66.0989 31.9348 66.0989 31.6142C66.0989 31.3209 66.0349 31.0453 65.9069 30.7872C65.7827 30.5291 65.5848 30.3219 65.3133 30.1655C65.0417 30.0052 64.6867 29.925 64.2482 29.925H62.2462V37.5381H61.123V28.9983H64.2482C64.8884 28.9983 65.4297 29.1097 65.872 29.3326C66.3143 29.5555 66.6499 29.8644 66.8788 30.2593C67.1077 30.6503 67.2222 31.0981 67.2222 31.6025C67.2222 32.1499 67.1077 32.6172 66.8788 33.0043C66.6499 33.3914 66.3143 33.6866 65.872 33.8899C65.4297 34.0894 64.8884 34.1891 64.2482 34.1891Z" fill="black"/>
<path d="M73.1584 35.3797C73.1584 35.1803 73.1274 35.0043 73.0653 34.8518C73.0071 34.6954 72.9023 34.5547 72.751 34.4295C72.6036 34.3044 72.398 34.1852 72.1341 34.0718C71.8742 33.9584 71.5444 33.843 71.1447 33.7257C70.7257 33.6006 70.3474 33.4618 70.0099 33.3093C69.6723 33.1529 69.3833 32.975 69.1427 32.7755C68.9022 32.5761 68.7179 32.3474 68.5898 32.0893C68.4618 31.8312 68.3978 31.536 68.3978 31.2036C68.3978 30.8713 68.4657 30.5643 68.6015 30.2828C68.7373 30.0013 68.9313 29.7569 69.1835 29.5496C69.4395 29.3385 69.7441 29.1742 70.0972 29.0569C70.4502 28.9396 70.8441 28.881 71.2786 28.881C71.9149 28.881 72.4542 29.0042 72.8965 29.2505C73.3427 29.4929 73.6822 29.8116 73.915 30.2065C74.1478 30.5976 74.2642 31.0159 74.2642 31.4617H73.1468C73.1468 31.1411 73.0789 30.8576 72.9431 30.6112C72.8073 30.361 72.6017 30.1655 72.3262 30.0247C72.0507 29.88 71.7015 29.8077 71.2786 29.8077C70.879 29.8077 70.5492 29.8683 70.2892 29.9895C70.0293 30.1107 69.8353 30.275 69.7072 30.4822C69.5831 30.6894 69.521 30.926 69.521 31.1919C69.521 31.3718 69.5579 31.536 69.6316 31.6846C69.7092 31.8293 69.8275 31.9642 69.9866 32.0893C70.1496 32.2144 70.3552 32.3298 70.6035 32.4353C70.8557 32.5409 71.1564 32.6426 71.5056 32.7403C71.9867 32.8772 72.4018 33.0297 72.751 33.1978C73.1002 33.366 73.3873 33.5556 73.6124 33.7668C73.8413 33.974 74.0101 34.2106 74.1187 34.4765C74.2312 34.7384 74.2875 35.0356 74.2875 35.368C74.2875 35.716 74.2176 36.0308 74.078 36.3123C73.9383 36.5938 73.7385 36.8343 73.4785 37.0337C73.2186 37.2331 72.9062 37.3876 72.5415 37.4971C72.1807 37.6027 71.7772 37.6554 71.331 37.6554C70.9391 37.6554 70.5531 37.6007 70.1728 37.4912C69.7965 37.3817 69.4531 37.2175 69.1427 36.9985C68.8362 36.7796 68.5898 36.5098 68.4036 36.1891C68.2212 35.8646 68.1301 35.4892 68.1301 35.063H69.2475C69.2475 35.3563 69.3037 35.6085 69.4163 35.8196C69.5288 36.0269 69.682 36.1989 69.876 36.3358C70.0739 36.4726 70.297 36.5743 70.5453 36.6408C70.7975 36.7033 71.0594 36.7346 71.331 36.7346C71.7229 36.7346 72.0546 36.6799 72.3262 36.5704C72.5978 36.4609 72.8034 36.3045 72.9431 36.1011C73.0866 35.8978 73.1584 35.6573 73.1584 35.3797Z" fill="black"/>
<path d="M44.4132 12.8568L30.9199 12.8568C34.2053 9.17146 33.2666 5.18986 31.5066 2.98549C27.3999 -0.732775 23.88 1.66932 22.7066 2.98549C19.4213 6.67077 21.3377 11.1019 22.7066 12.8568H8.62665V26.0185C2.52533 25.492 1 30.1864 1 32.5994C1 37.8641 3.93333 40.0685 8.62665 39.8383C8.62665 44.9783 8.62665 53 8.62665 53H44.4132M44.4132 12.8568L56.1466 12.8568C56.1466 17.0355 59.3785 20.0957 63.1865 20.0957C64.1993 20.0957 69.0532 19.6679 70.2265 12.8568H82.5465V26.0185C84.6976 26.0185 88.9998 27.4663 88.9998 33.2574C88.9998 35.2317 87.7092 39.3118 82.5465 39.8383V53H70.8132C70.6176 50.3677 69.6399 45.3332 64.3599 45.103C61.1181 44.9616 56.7332 46.6824 56.7332 53H44.4132M44.4132 12.8568V26.0185C42.8488 26.2379 39.6026 27.8611 39.1333 32.5994C38.9377 34.5736 39.7199 38.7854 44.4132 39.8383V53" stroke="black" stroke-linecap="round" stroke-linejoin="round"/>
</svg>
