<svg width="166" height="166" viewBox="0 0 166 166" fill="none" xmlns="http://www.w3.org/2000/svg">
<circle cx="77.1406" cy="96.3989" r="33.9587" transform="rotate(-140.977 77.1406 96.3989)" fill="#383F43" stroke="#1E1E1E"/>
<circle cx="98.6602" cy="75.3289" r="33.9587" transform="rotate(-140.977 98.6602 75.3289)" fill="#B7BDC0" stroke="#1E1E1E"/>
<circle cx="116.262" cy="96.3989" r="33.9587" transform="rotate(-140.977 116.262 96.3989)" fill="#5FC194" stroke="#1E1E1E"/>
<mask id="path-4-inside-1_427_7359" fill="white">
<path fill-rule="evenodd" clip-rule="evenodd" d="M94.8137 17.2104C87.5095 14.6165 79.6455 13.2046 71.4517 13.2046C32.9047 13.2046 1.65625 44.4531 1.65625 83C1.65625 121.547 32.9047 152.796 71.4517 152.796C79.6458 152.796 87.51 151.383 94.8145 148.789C67.7567 139.181 48.381 113.353 48.381 82.9998C48.381 52.6469 67.7563 26.8193 94.8137 17.2104Z"/>
</mask>
<path fill-rule="evenodd" clip-rule="evenodd" d="M94.8137 17.2104C87.5095 14.6165 79.6455 13.2046 71.4517 13.2046C32.9047 13.2046 1.65625 44.4531 1.65625 83C1.65625 121.547 32.9047 152.796 71.4517 152.796C79.6458 152.796 87.51 151.383 94.8145 148.789C67.7567 139.181 48.381 113.353 48.381 82.9998C48.381 52.6469 67.7563 26.8193 94.8137 17.2104Z" fill="#5FC194"/>
<path d="M94.8137 17.2104L95.1484 18.1527L97.8019 17.2104L95.1484 16.2681L94.8137 17.2104ZM94.8145 148.789L95.1491 149.732L97.8027 148.789L95.1491 147.847L94.8145 148.789ZM71.4517 14.2046C79.5299 14.2046 87.2808 15.5965 94.4791 18.1527L95.1484 16.2681C87.7382 13.6366 79.7611 12.2046 71.4517 12.2046V14.2046ZM2.65625 83C2.65625 45.0054 33.457 14.2046 71.4517 14.2046V12.2046C32.3525 12.2046 0.65625 43.9008 0.65625 83H2.65625ZM71.4517 151.796C33.457 151.796 2.65625 120.995 2.65625 83H0.65625C0.65625 122.099 32.3525 153.796 71.4517 153.796V151.796ZM94.4798 147.847C87.2813 150.403 79.5302 151.796 71.4517 151.796V153.796C79.7614 153.796 87.7388 152.363 95.1491 149.732L94.4798 147.847ZM95.1491 147.847C68.4776 138.376 49.381 112.917 49.381 82.9998H47.381C47.381 113.789 67.0358 139.986 94.4798 149.732L95.1491 147.847ZM49.381 82.9998C49.381 53.0833 68.4773 27.6245 95.1484 18.1527L94.4791 16.2681C67.0354 26.0142 47.381 52.2104 47.381 82.9998H49.381Z" fill="#1E1E1E" mask="url(#path-4-inside-1_427_7359)"/>
</svg>
