<svg width="62" height="72" viewBox="0 0 62 72" fill="none" xmlns="http://www.w3.org/2000/svg">
<path d="M13.3807 9.75H2.90453L0.999767 11.6944C3.85691 17.3657 12.0474 29.3889 21.9521 32.1111" stroke="black" stroke-linecap="round" stroke-linejoin="round"/>
<path d="M48.6193 9.75H59.0955L61.0002 11.6944C58.1431 17.3657 49.9526 29.3889 40.0479 32.1111" stroke="black" stroke-linecap="round" stroke-linejoin="round"/>
<path d="M28.1429 35.0278H33.8571V46.2084H41V49.1251H21V46.2084H28.1429V35.0278Z" fill="white"/>
<path d="M28.1429 35.0278H33.8571V46.2084H28.1429V35.0278ZM21 49.1251H41V46.2084H21V49.1251Z" stroke="#1E1E1E" stroke-linecap="round" stroke-linejoin="round"/>
<path d="M48.5928 3.93054C48.5237 12.7116 46.6377 21.0808 43.3533 27.2571C39.9982 33.5663 35.5296 36.9583 30.9995 36.9583C26.4695 36.9583 22.0008 33.5663 18.6457 27.2571C15.3613 21.0808 13.4753 12.7116 13.4063 3.93055L48.5928 3.93054Z" fill="white" stroke="black"/>
<path d="M28.8366 15.6289L28.9942 15.6054L29.063 15.4618L31.0003 11.4167L32.9376 15.4618L33.0063 15.6053L33.1637 15.6289L37.5118 16.2809L34.3592 19.4454L34.2505 19.5546L34.2758 19.7065L35.0192 24.1663L31.1431 22.0683L31.0003 21.991L30.8575 22.0683L26.9813 24.1663L27.7248 19.7065L27.7501 19.5547L27.6415 19.4456L24.4888 16.2764L28.8366 15.6289Z" fill="#3F9A70" stroke="black" stroke-width="0.6"/>
<path d="M50.5242 1H11.4766V4.40278H50.5242V1Z" fill="white" stroke="#1E1E1E" stroke-linecap="round" stroke-linejoin="round"/>
<path d="M14.3334 53.0139V48.6389H47.6667V53.0139H57.1905V71H4.80957V53.0139H14.3334Z" fill="#86868A"/>
<path d="M14.3334 53.0139V48.6389H47.6667V53.0139M47.6667 53.0139H4.80957V71H57.1905V53.0139H47.6667Z" stroke="#1E1E1E" stroke-linecap="round" stroke-linejoin="round"/>
<path d="M51.4761 58.3611H9.57129V66.1389H51.4761V58.3611Z" fill="#1E1E1E" stroke="#1E1E1E" stroke-linecap="round" stroke-linejoin="round"/>
</svg>
