<svg width="53" height="72" viewBox="0 0 53 72" fill="none" xmlns="http://www.w3.org/2000/svg">
<path d="M0.614134 18.0513C0.126173 23.1861 2.91276 27.0256 8.90549 28.5404H43.8413C50.4607 27.1044 52.1155 21.0618 52.1155 18.2199C51.7478 10.6814 45.2203 9.09594 42.0026 9.24554C42.0026 4.93778 37.7122 2.36517 35.5671 1.61734C30.7864 -0.177535 26.8331 2.3652 25.4541 3.86093C23.2476 0.989131 18.0992 1.16862 15.8008 1.61734C10.2665 3.24359 9.05877 7.45067 8.90549 9.24554C4.29157 9.52564 1.05627 13.3955 0.614134 18.0513Z" fill="white" stroke="#1E1E1E" stroke-width="0.8" stroke-linejoin="round"/>
<path d="M33.7715 17.1538C33.7715 21.3846 30.2552 24.8308 25.8973 24.8308C21.5393 24.8308 18.023 21.3846 18.023 17.1538C18.023 12.923 21.5393 9.4769 25.8973 9.4769C30.2552 9.4769 33.7715 12.923 33.7715 17.1538Z" fill="white" stroke="#1E1E1E" stroke-width="0.8"/>
<path d="M22.2188 16.7052L25.8962 20.295L30.0333 13.5642" stroke="black" stroke-width="0.8" stroke-linecap="round" stroke-linejoin="round"/>
<path d="M13.9453 28.8206V33.7565H17.6227V28.8206" stroke="#1E1E1E" stroke-width="0.8" stroke-linecap="round" stroke-linejoin="round"/>
<path d="M35.0918 28.8206V33.7565H38.7692V28.8206" stroke="#1E1E1E" stroke-width="0.8" stroke-linecap="round" stroke-linejoin="round"/>
<path d="M20.3801 35.1025H11.1865V32.4102H20.3801V35.1025Z" fill="#86868A" stroke="#1E1E1E" stroke-linecap="round" stroke-linejoin="round"/>
<path d="M41.5256 35.1025H32.332V32.4102H41.5256V35.1025Z" fill="#86868A" stroke="#1E1E1E" stroke-linecap="round" stroke-linejoin="round"/>
<path d="M43.7163 35.1025H10.9915C2.15975 35.1025 0.740361 41.5232 1.13464 44.7335L6.2602 66.307C7.77884 71.3151 15.7262 73.6265 20.0598 66.307C24.3934 58.9874 24.7911 58.6022 24.7911 58.6022H30.3109L34.648 66.307C39.3208 74.0118 46.4177 70.9299 47.659 66.307L52.3903 44.7335C53.652 37.9533 47.6006 35.1025 43.7163 35.1025Z" fill="#86868A" stroke="#1E1E1E" stroke-width="0.8" stroke-linecap="round" stroke-linejoin="round"/>
<rect x="7.09277" y="47.6152" width="3.48718" height="11.871" rx="1.74359" transform="rotate(-90 7.09277 47.6152)" fill="#4E7156" stroke="black"/>
<path d="M11.2305 41.8332C11.2305 40.8815 12.0242 40.0896 13.0289 40.0896C14.0335 40.0896 14.8273 40.8815 14.8273 41.8332V49.9101C14.8273 50.8618 14.0335 51.6537 13.0289 51.6537C12.0242 51.6537 11.2305 50.8618 11.2305 49.9101V41.8332Z" fill="#4E7156" stroke="black"/>
<path d="M43.7868 41.3847C43.7868 42.0885 43.1989 42.6796 42.4481 42.6796C41.6973 42.6796 41.1094 42.0885 41.1094 41.3847C41.1094 40.6809 41.6973 40.0898 42.4481 40.0898C43.1989 40.0898 43.7868 40.6809 43.7868 41.3847Z" fill="white" stroke="#1E1E1E"/>
<path d="M43.7868 48.5642C43.7868 49.268 43.1989 49.859 42.4481 49.859C41.6973 49.859 41.1094 49.268 41.1094 48.5642C41.1094 47.8603 41.6973 47.2693 42.4481 47.2693C43.1989 47.2693 43.7868 47.8603 43.7868 48.5642Z" fill="white" stroke="#1E1E1E"/>
<path d="M40.1071 44.9743C40.1071 45.6781 39.5192 46.2692 38.7684 46.2692C38.0176 46.2692 37.4297 45.6781 37.4297 44.9743C37.4297 44.2705 38.0176 43.6794 38.7684 43.6794C39.5192 43.6794 40.1071 44.2705 40.1071 44.9743Z" fill="white" stroke="#1E1E1E"/>
<path d="M47.4626 44.9743C47.4626 45.6781 46.8747 46.2692 46.1239 46.2692C45.3731 46.2692 44.7852 45.6781 44.7852 44.9743C44.7852 44.2705 45.3731 43.6794 46.1239 43.6794C46.8747 43.6794 47.4626 44.2705 47.4626 44.9743Z" fill="white" stroke="#1E1E1E"/>
</svg>
