<svg width="54" height="54" viewBox="0 0 54 54" fill="none" xmlns="http://www.w3.org/2000/svg">
<mask id="path-1-inside-1_699_2320" fill="white">
<path d="M54.0848 27.2038C54.1103 27.2038 54.1358 27.2018 54.1613 27.2018H54.0102C27.4762 27.0998 27.4722 0.515747 27.4722 0.515747C27.4722 0.515747 27.4703 27.0998 0.93623 27.2018H0.785156C0.810662 27.2018 0.836168 27.2038 0.861674 27.2038C0.836168 27.2038 0.810662 27.2058 0.785156 27.2058H0.93623C27.4703 27.3078 27.4722 53.8919 27.4722 53.8919C27.4722 53.8919 27.4742 27.3078 54.0083 27.2058H54.1593C54.1358 27.2038 54.1103 27.2038 54.0848 27.2038Z"/>
</mask>
<path d="M54.0848 27.2038C54.1103 27.2038 54.1358 27.2018 54.1613 27.2018H54.0102C27.4762 27.0998 27.4722 0.515747 27.4722 0.515747C27.4722 0.515747 27.4703 27.0998 0.93623 27.2018H0.785156C0.810662 27.2018 0.836168 27.2038 0.861674 27.2038C0.836168 27.2038 0.810662 27.2058 0.785156 27.2058H0.93623C27.4703 27.3078 27.4722 53.8919 27.4722 53.8919C27.4722 53.8919 27.4742 27.3078 54.0083 27.2058H54.1593C54.1358 27.2038 54.1103 27.2038 54.0848 27.2038Z" fill="#5FC194"/>
<path d="M54.1613 27.2018L54.5843 27.413L54.9357 26.7091L54.1492 26.7292L54.1613 27.2018ZM54.0102 27.2018L54.0227 26.7292L53.7219 26.7213L53.5874 26.9904L54.0102 27.2018ZM0.93623 27.2018H1.409V26.7166L0.923952 26.7292L0.93623 27.2018ZM0.785156 27.2018L0.797287 26.7292L0.312387 26.7168V27.2018H0.785156ZM0.785156 27.2058H0.312387V27.6908L0.797267 27.6784L0.785156 27.2058ZM0.93623 27.2058L0.923952 27.6784L1.409 27.691V27.2058H0.93623ZM54.0083 27.2058L53.5854 26.9943L53.2333 27.6986L54.0204 27.6784L54.0083 27.2058ZM54.1593 27.2058L54.1469 27.6784L54.4479 27.6863L54.5823 27.4169L54.1593 27.2058ZM54.0969 27.6764L54.1734 27.6745L54.1492 26.7292L54.0726 26.7312L54.0969 27.6764ZM54.0972 26.7312L54.0227 26.7292L53.9978 27.6745L54.0723 27.6764L54.0972 26.7312ZM54.0727 26.7312L53.9961 26.7332L54.0204 27.6784L54.0969 27.6764L54.0727 26.7312ZM54.0723 27.6764L54.1469 27.6784L54.1718 26.7332L54.0972 26.7312L54.0723 27.6764ZM54.1492 26.7292L53.9961 26.7332L54.0204 27.6784L54.1734 27.6745L54.1492 26.7292ZM53.7383 26.9907L53.7363 26.9946L54.5823 27.4169L54.5843 27.413L53.7383 26.9907ZM53.5874 26.9904L53.5854 26.9943L54.4311 27.4172L54.4331 27.4133L53.5874 26.9904ZM53.9978 27.6745L54.1469 27.6784L54.1718 26.7332L54.0227 26.7292L53.9978 27.6745ZM0.92378 26.7292L0.849225 26.7312L0.874124 27.6764L0.94868 27.6745L0.92378 26.7292ZM0.923952 26.7292L0.772878 26.7332L0.797434 27.6784L0.948508 27.6745L0.923952 26.7292ZM0.463461 27.2018V27.2058H1.409V27.2018H0.463461ZM0.773026 27.6745L0.849544 27.6764L0.873805 26.7312L0.797287 26.7292L0.773026 27.6745ZM0.312387 27.2018V27.2058H1.25793V27.2018H0.312387ZM0.772878 27.6745L0.923952 27.6784L0.948508 26.7332L0.797434 26.7292L0.772878 27.6745ZM0.849564 26.7312L0.773046 26.7332L0.797267 27.6784L0.873785 27.6764L0.849564 26.7312ZM0.849245 27.6764L0.923801 27.6784L0.948659 26.7332L0.874103 26.7312L0.849245 27.6764ZM54.0102 27.2018L54.0066 28.1474H54.0102V27.2018ZM27.4722 0.515747L28.4178 0.515608L26.5267 0.515677L27.4722 0.515747ZM0.93623 27.2018V28.1474L0.939866 28.1474L0.93623 27.2018ZM0.93623 27.2058L0.939866 26.2602H0.93623V27.2058ZM27.4722 53.8919L26.5267 53.8919H28.4178L27.4722 53.8919ZM54.0083 27.2058V26.2602L54.0046 26.2602L54.0083 27.2058ZM54.1593 27.2058V28.1513L54.2379 26.2635L54.1593 27.2058ZM54.0848 28.1494C54.103 28.1494 54.119 28.149 54.1312 28.1487C54.1429 28.1483 54.1538 28.1479 54.1594 28.1477C54.1665 28.1474 54.1684 28.1473 54.1695 28.1473C54.17 28.1473 54.1668 28.1474 54.1613 28.1474V26.2563C54.143 26.2563 54.1271 26.2567 54.1149 26.257C54.1032 26.2573 54.0923 26.2578 54.0867 26.258C54.0795 26.2583 54.0777 26.2583 54.0766 26.2584C54.076 26.2584 54.0793 26.2583 54.0848 26.2583V28.1494ZM54.1613 26.2563H54.0102V28.1474H54.1613V26.2563ZM54.0139 26.2563C47.5462 26.2314 42.7574 24.5958 39.1968 22.2042C35.6303 19.8085 33.2405 16.6166 31.6373 13.3989C30.0322 10.1776 29.2248 6.94799 28.8202 4.5159C28.6182 3.30208 28.5175 2.2929 28.4674 1.59087C28.4423 1.24001 28.4299 0.966352 28.4238 0.782747C28.4207 0.690959 28.4192 0.621724 28.4185 0.576652C28.4181 0.554118 28.4179 0.537629 28.4179 0.527386C28.4178 0.522265 28.4178 0.518706 28.4178 0.516734C28.4178 0.515749 28.4178 0.51516 28.4178 0.514971C28.4178 0.514876 28.4178 0.515036 28.4178 0.514988C28.4178 0.515247 28.4178 0.515608 27.4722 0.515747C26.5267 0.515887 26.5267 0.51645 26.5267 0.517114C26.5267 0.517471 26.5267 0.518238 26.5267 0.518951C26.5267 0.520378 26.5267 0.52221 26.5267 0.524444C26.5267 0.528912 26.5268 0.534988 26.5268 0.542645C26.527 0.557958 26.5272 0.579601 26.5277 0.607369C26.5286 0.662903 26.5303 0.742956 26.5338 0.8459C26.5406 1.05176 26.5542 1.34934 26.5811 1.72559C26.6348 2.47778 26.7417 3.54627 26.9547 4.8263C27.38 7.38191 28.2319 10.8047 29.9447 14.2422C31.6592 17.6833 34.2455 21.1565 38.1424 23.774C42.0453 26.3956 47.2072 28.1212 54.0066 28.1474L54.0139 26.2563ZM27.4722 0.515747C26.5267 0.515677 26.5267 0.515317 26.5267 0.515058C26.5267 0.515106 26.5267 0.514946 26.5267 0.515041C26.5267 0.515229 26.5267 0.515818 26.5267 0.516804C26.5267 0.518776 26.5267 0.522335 26.5266 0.527456C26.5266 0.537699 26.5264 0.554188 26.526 0.576722C26.5253 0.621793 26.5238 0.691028 26.5207 0.782817C26.5146 0.966422 26.5022 1.24008 26.4772 1.59094C26.4271 2.29297 26.3265 3.30215 26.1246 4.51597C25.7201 6.94806 24.913 10.1776 23.3082 13.3989C21.7052 16.6166 19.3156 19.8086 15.7493 22.2042C12.189 24.5958 7.40025 26.2314 0.932594 26.2563L0.939866 28.1474C7.73923 28.1212 12.901 26.3956 16.8038 23.774C20.7005 21.1564 23.2866 17.6833 25.0008 14.2422C26.7133 10.8047 27.565 7.38185 27.9901 4.82623C28.203 3.5462 28.3098 2.47771 28.3635 1.72552C28.3903 1.34927 28.4039 1.05169 28.4108 0.84583C28.4142 0.742886 28.4159 0.662833 28.4168 0.607299C28.4173 0.579531 28.4175 0.557888 28.4176 0.542575C28.4177 0.534918 28.4177 0.528843 28.4178 0.524375C28.4178 0.522141 28.4178 0.520308 28.4178 0.518881C28.4178 0.518168 28.4178 0.517401 28.4178 0.517044C28.4178 0.51638 28.4178 0.515817 27.4722 0.515747ZM0.93623 26.2563H0.785156V28.1474H0.93623V26.2563ZM0.785156 28.1474C0.779651 28.1474 0.776423 28.1473 0.776994 28.1473C0.77807 28.1473 0.779904 28.1474 0.787038 28.1477C0.792657 28.1479 0.803576 28.1483 0.815253 28.1487C0.827435 28.149 0.843415 28.1494 0.861674 28.1494V26.2583C0.86718 26.2583 0.870407 26.2584 0.869836 26.2584C0.868761 26.2583 0.866927 26.2583 0.859792 26.258C0.854174 26.2578 0.843255 26.2573 0.831577 26.257C0.819395 26.2567 0.803415 26.2563 0.785156 26.2563V28.1474ZM0.861674 26.2583C0.843435 26.2583 0.827471 26.2586 0.815298 26.259C0.803629 26.2593 0.792718 26.2597 0.787098 26.26C0.779965 26.2602 0.778123 26.2603 0.777039 26.2603C0.776459 26.2603 0.77967 26.2602 0.785156 26.2602V28.1513C0.803395 28.1513 0.81936 28.151 0.831532 28.1506C0.843201 28.1503 0.854113 28.1499 0.859732 28.1496C0.866866 28.1494 0.868707 28.1493 0.869791 28.1493C0.870371 28.1492 0.86716 28.1494 0.861674 28.1494V26.2583ZM0.785156 28.1513H0.93623V26.2602H0.785156V28.1513ZM0.932594 28.1513C7.40025 28.1762 12.189 29.8118 15.7493 32.2034C19.3156 34.5991 21.7052 37.791 23.3082 41.0087C24.913 44.23 25.7201 47.4596 26.1246 49.8917C26.3265 51.1055 26.4271 52.1147 26.4772 52.8167C26.5022 53.1675 26.5146 53.4412 26.5207 53.6248C26.5238 53.7166 26.5253 53.7858 26.526 53.8309C26.5264 53.8534 26.5266 53.8699 26.5266 53.8802C26.5267 53.8853 26.5267 53.8889 26.5267 53.8908C26.5267 53.8918 26.5267 53.8924 26.5267 53.8926C26.5267 53.8927 26.5267 53.8925 26.5267 53.8926C26.5267 53.8923 26.5267 53.8919 27.4722 53.8919C28.4178 53.8918 28.4178 53.8912 28.4178 53.8906C28.4178 53.8902 28.4178 53.8895 28.4178 53.8887C28.4178 53.8873 28.4178 53.8855 28.4178 53.8833C28.4177 53.8788 28.4177 53.8727 28.4176 53.8651C28.4175 53.8497 28.4173 53.8281 28.4168 53.8003C28.4159 53.7448 28.4142 53.6647 28.4108 53.5618C28.4039 53.3559 28.3903 53.0584 28.3635 52.6821C28.3098 51.9299 28.203 50.8614 27.9901 49.5814C27.565 47.0258 26.7133 43.6029 25.0008 40.1655C23.2866 36.7244 20.7005 33.2512 16.8038 30.6336C12.901 28.012 7.73923 26.2864 0.939866 26.2602L0.932594 28.1513ZM27.4722 53.8919C28.4178 53.8919 28.4178 53.8923 28.4178 53.8926C28.4178 53.8925 28.4178 53.8927 28.4178 53.8926C28.4178 53.8924 28.4178 53.8918 28.4178 53.8908C28.4178 53.8889 28.4178 53.8853 28.4179 53.8802C28.4179 53.8699 28.4181 53.8534 28.4185 53.8309C28.4192 53.7858 28.4207 53.7166 28.4238 53.6248C28.4299 53.4412 28.4423 53.1675 28.4673 52.8167C28.5174 52.1147 28.618 51.1055 28.8199 49.8917C29.2244 47.4596 30.0315 44.23 31.6363 41.0087C33.2393 37.791 35.6288 34.5991 39.1952 32.2034C42.7555 29.8118 47.5442 28.1762 54.0119 28.1513L54.0046 26.2602C47.2052 26.2864 42.0434 28.012 38.1407 30.6336C34.244 33.2512 31.6579 36.7244 29.9436 40.1655C28.2312 43.6029 27.3795 47.0258 26.9544 49.5814C26.7415 50.8614 26.6347 51.9299 26.581 52.6821C26.5542 53.0584 26.5406 53.3559 26.5337 53.5618C26.5303 53.6647 26.5285 53.7448 26.5276 53.8003C26.5272 53.8281 26.527 53.8497 26.5268 53.8651C26.5268 53.8727 26.5267 53.8788 26.5267 53.8833C26.5267 53.8855 26.5267 53.8873 26.5267 53.8887C26.5267 53.8895 26.5267 53.8902 26.5267 53.8906C26.5267 53.8912 26.5267 53.8918 27.4722 53.8919ZM54.0083 28.1513H54.1593V26.2602H54.0083V28.1513ZM54.2379 26.2635C54.1679 26.2577 54.1014 26.2583 54.0848 26.2583V28.1494C54.0915 28.1494 54.0956 28.1494 54.0993 28.1494C54.101 28.1494 54.1022 28.1494 54.103 28.1494C54.1039 28.1494 54.1043 28.1494 54.1043 28.1494C54.1043 28.1494 54.1038 28.1494 54.1029 28.1494C54.102 28.1493 54.1005 28.1493 54.0986 28.1492C54.095 28.149 54.0889 28.1487 54.0808 28.148L54.2379 26.2635Z" fill="#1E1E1E" mask="url(#path-1-inside-1_699_2320)"/>
</svg>
