<svg width="1280" height="265" viewBox="0 0 1280 265" fill="none" xmlns="http://www.w3.org/2000/svg">
<rect x="3.05176e-05" width="1280" height="265" fill="#3F9A70"/>
<path d="M1279.5 0.5L1279.5 88.5001L0.499996 88.5L0.5 0.499944L1279.5 0.5Z" stroke="white"/>
<path d="M1279.5 88.5L1279.5 176.5L0.499996 176.5L0.5 88.4999L1279.5 88.5Z" stroke="white"/>
<path d="M851.5 264.5L765.5 264.5L765.5 0.499993L851.5 0.5L851.5 264.5Z" stroke="white"/>
<path d="M86.5 264.5L0.500008 264.5L0.500031 0.499993L86.5001 0.5L86.5 264.5Z" stroke="white"/>
<path d="M936.5 264.5L851.5 264.5L851.5 0.499993L936.5 0.5L936.5 264.5Z" stroke="white"/>
<path d="M171.5 264.5L86.5 264.5L86.5 0.499993L171.5 0.5L171.5 264.5Z" stroke="white"/>
<path d="M1108.5 264.5L1022.5 264.5L1022.5 0.499993L1108.5 0.5L1108.5 264.5Z" stroke="white"/>
<path d="M343.5 264.5L257.5 264.5L257.5 0.499993L343.5 0.5L343.5 264.5Z" stroke="white"/>
<path d="M1022.5 264.5L936.5 264.5L936.5 0.499993L1022.5 0.5L1022.5 264.5Z" stroke="white"/>
<path d="M257.5 264.5L171.5 264.5L171.5 0.499993L257.5 0.5L257.5 264.5Z" stroke="white"/>
<path d="M1193.5 264.5L1108.5 264.5L1108.5 0.499993L1193.5 0.5L1193.5 264.5Z" stroke="white"/>
<path d="M428.5 264.5L343.5 264.5L343.5 0.499993L428.5 0.5L428.5 264.5Z" stroke="white"/>
<path d="M1279.5 264.5L1193.5 264.5L1193.5 0.499993L1279.5 0.5L1279.5 264.5Z" stroke="white"/>
<path d="M514.5 264.5L428.5 264.5L428.5 0.499993L514.5 0.5L514.5 264.5Z" stroke="white"/>
<path d="M1279.5 176.5L1279.5 264.5L0.499996 264.5L0.5 176.5L1279.5 176.5Z" stroke="white"/>
<rect x="515" y="3" width="250" height="261" fill="#3F9A70"/>

<!-- arrow -->
<!-- <a href="#">
    <g clip-path="url(#clip0_619_558)">
        <path d="M635.834 113.53L635.834 112.323L634.98 113.177L610.302 137.855L604.41 131.964L640 96.3734L675.591 131.964L669.699 137.855L645.021 113.177L644.167 112.323L644.167 113.53L644.167 169.833L635.834 169.833L635.834 113.53Z" stroke="white"/>
    </g>
    <path d="M765.5 132.5C765.5 205.428 709.51 264.5 640.5 264.5C571.49 264.5 515.5 205.428 515.5 132.5C515.5 59.5725 571.49 0.5 640.5 0.5C709.51 0.5 765.5 59.5725 765.5 132.5Z" stroke="white"/>
</a> -->
<!-- arrow -->

<path d="M172.497 176.75L215 89.1455L257.503 176.75H172.497Z" stroke="white"/>
<path d="M1108.5 176.25L1151 263.855L1193.5 176.25H1108.5Z" stroke="white"/>

<!-- text -->
<!-- <path d="M609.878 201.168C609.234 201.168 608.749 200.981 608.422 200.608C608.095 200.235 607.932 199.731 607.932 199.096V195.176H606.364V194.21H607.932V192.152H609.052V194.21H611.376V195.176H609.052V198.774C609.052 199.278 609.141 199.633 609.318 199.838C609.495 200.043 609.789 200.146 610.2 200.146C610.639 200.146 611.003 200.053 611.292 199.866V200.86C610.975 201.065 610.503 201.168 609.878 201.168ZM613.601 195.092C614.291 194.392 615.173 194.042 616.247 194.042C617.32 194.042 618.202 194.392 618.893 195.092C619.583 195.792 619.929 196.632 619.929 197.612C619.929 198.592 619.583 199.432 618.893 200.132C618.202 200.823 617.32 201.168 616.247 201.168C615.173 201.168 614.291 200.823 613.601 200.132C612.91 199.432 612.565 198.592 612.565 197.612C612.565 196.632 612.91 195.792 613.601 195.092ZM614.427 199.446C614.912 199.931 615.519 200.174 616.247 200.174C616.975 200.174 617.581 199.931 618.067 199.446C618.552 198.951 618.795 198.34 618.795 197.612C618.795 196.884 618.552 196.273 618.067 195.778C617.581 195.283 616.975 195.036 616.247 195.036C615.519 195.036 614.912 195.283 614.427 195.778C613.941 196.273 613.699 196.884 613.699 197.612C613.699 198.34 613.941 198.951 614.427 199.446ZM628.144 201.168C627.5 201.168 627.014 200.981 626.688 200.608C626.361 200.235 626.198 199.731 626.198 199.096V195.176H624.63V194.21H626.198V192.152H627.318V194.21H629.642V195.176H627.318V198.774C627.318 199.278 627.406 199.633 627.584 199.838C627.761 200.043 628.055 200.146 628.466 200.146C628.904 200.146 629.268 200.053 629.558 199.866V200.86C629.24 201.065 628.769 201.168 628.144 201.168ZM632.577 201H631.457V191.2H632.577V195.232C632.848 194.896 633.212 194.616 633.669 194.392C634.136 194.159 634.658 194.042 635.237 194.042C636.086 194.042 636.726 194.289 637.155 194.784C637.594 195.279 637.813 195.974 637.813 196.87V201H636.693V197.108C636.693 196.707 636.632 196.366 636.511 196.086C636.399 195.797 636.245 195.587 636.049 195.456C635.853 195.325 635.657 195.232 635.461 195.176C635.274 195.12 635.069 195.092 634.845 195.092C634.406 195.092 633.968 195.232 633.529 195.512C633.09 195.783 632.773 196.095 632.577 196.45V201ZM643.264 201.168C642.209 201.168 641.322 200.837 640.604 200.174C639.885 199.502 639.526 198.648 639.526 197.612C639.526 196.585 639.843 195.736 640.478 195.064C641.122 194.383 641.957 194.042 642.984 194.042C643.516 194.042 643.992 194.154 644.412 194.378C644.841 194.593 645.177 194.877 645.42 195.232C645.662 195.587 645.844 195.965 645.966 196.366C646.096 196.767 646.162 197.173 646.162 197.584V197.892H640.66C640.734 198.592 641.024 199.147 641.528 199.558C642.041 199.969 642.694 200.174 643.488 200.174C644.272 200.174 645 199.964 645.672 199.544V200.524C645.102 200.953 644.3 201.168 643.264 201.168ZM640.674 196.996H645.042C645.014 196.501 644.822 196.053 644.468 195.652C644.122 195.241 643.609 195.036 642.928 195.036C642.274 195.036 641.742 195.232 641.332 195.624C640.93 196.007 640.711 196.464 640.674 196.996ZM654.407 201.168C653.763 201.168 653.278 200.981 652.951 200.608C652.625 200.235 652.461 199.731 652.461 199.096V195.176H650.893V194.21H652.461V192.152H653.581V194.21H655.905V195.176H653.581V198.774C653.581 199.278 653.67 199.633 653.847 199.838C654.025 200.043 654.319 200.146 654.729 200.146C655.168 200.146 655.532 200.053 655.821 199.866V200.86C655.504 201.065 655.033 201.168 654.407 201.168ZM658.13 195.092C658.821 194.392 659.703 194.042 660.776 194.042C661.849 194.042 662.731 194.392 663.422 195.092C664.113 195.792 664.458 196.632 664.458 197.612C664.458 198.592 664.113 199.432 663.422 200.132C662.731 200.823 661.849 201.168 660.776 201.168C659.703 201.168 658.821 200.823 658.13 200.132C657.439 199.432 657.094 198.592 657.094 197.612C657.094 196.632 657.439 195.792 658.13 195.092ZM658.956 199.446C659.441 199.931 660.048 200.174 660.776 200.174C661.504 200.174 662.111 199.931 662.596 199.446C663.081 198.951 663.324 198.34 663.324 197.612C663.324 196.884 663.081 196.273 662.596 195.778C662.111 195.283 661.504 195.036 660.776 195.036C660.048 195.036 659.441 195.283 658.956 195.778C658.471 196.273 658.228 196.884 658.228 197.612C658.228 198.34 658.471 198.951 658.956 199.446ZM667.399 203.8H666.279V194.21H667.399V195.26C668.025 194.448 668.883 194.042 669.975 194.042C670.965 194.042 671.777 194.392 672.411 195.092C673.046 195.783 673.363 196.618 673.363 197.598C673.363 198.587 673.046 199.432 672.411 200.132C671.777 200.823 670.965 201.168 669.975 201.168C668.865 201.168 668.006 200.762 667.399 199.95V203.8ZM667.399 196.506V198.718C667.595 199.147 667.899 199.497 668.309 199.768C668.72 200.039 669.187 200.174 669.709 200.174C670.437 200.174 671.039 199.927 671.515 199.432C671.991 198.937 672.229 198.326 672.229 197.598C672.229 196.87 671.991 196.263 671.515 195.778C671.039 195.283 670.437 195.036 669.709 195.036C669.215 195.036 668.753 195.176 668.323 195.456C667.903 195.736 667.595 196.086 667.399 196.506Z" fill="white"/> -->
<!-- text -->

<defs>
<clipPath id="clip0_619_558">
<rect width="112" height="112" fill="white" transform="translate(696 189) rotate(-180)"/>
</clipPath>
</defs>
</svg>
