<svg width="12" height="16" viewBox="0 0 12 16" fill="none" xmlns="http://www.w3.org/2000/svg">
<path d="M6 15.3188L1.75734 11.0761C0.918228 10.237 0.346791 9.16789 0.115286 8.00401C-0.11622 6.84013 0.00260456 5.63373 0.456732 4.53738C0.91086 3.44103 1.6799 2.50396 2.66659 1.84467C3.65328 1.18539 4.81332 0.833496 6 0.833496C7.18669 0.833496 8.34672 1.18539 9.33342 1.84467C10.3201 2.50396 11.0891 3.44103 11.5433 4.53738C11.9974 5.63373 12.1162 6.84013 11.8847 8.00401C11.6532 9.16789 11.0818 10.237 10.2427 11.0761L6 15.3188ZM9.3 10.1334C9.9526 9.48078 10.397 8.64926 10.577 7.74403C10.7571 6.8388 10.6646 5.90051 10.3114 5.04781C9.95817 4.19512 9.36003 3.46632 8.59261 2.95356C7.82519 2.4408 6.92296 2.16711 6 2.16711C5.07704 2.16711 4.17481 2.4408 3.40739 2.95356C2.63997 3.46632 2.04183 4.19512 1.68861 5.04781C1.33539 5.90051 1.24294 6.8388 1.42297 7.74403C1.603 8.64926 2.04741 9.48078 2.7 10.1334L6 13.4334L9.3 10.1334ZM6 8.16678C5.64638 8.16678 5.30724 8.0263 5.05719 7.77625C4.80715 7.5262 4.66667 7.18707 4.66667 6.83344C4.66667 6.47982 4.80715 6.14068 5.05719 5.89064C5.30724 5.64059 5.64638 5.50011 6 5.50011C6.35362 5.50011 6.69276 5.64059 6.94281 5.89064C7.19286 6.14068 7.33334 6.47982 7.33334 6.83344C7.33334 7.18707 7.19286 7.5262 6.94281 7.77625C6.69276 8.0263 6.35362 8.16678 6 8.16678Z" fill="#1E1E1E"/>
</svg>
