<svg width="152" height="23" viewBox="0 0 152 23" fill="none" xmlns="http://www.w3.org/2000/svg">
<path d="M11.9865 23C8.597 23 5.75188 21.9258 3.45113 19.7775C1.15038 17.6291 0 14.87 0 11.5C0 8.10897 1.16065 5.34982 3.48194 3.22253C5.80323 1.07418 8.73053 0 12.2638 0C13.2293 0 14.1024 0.0737183 14.883 0.221155C15.6636 0.36859 16.2593 0.526557 16.6702 0.695055C17.1016 0.842491 17.6665 1.07418 18.3649 1.39011V7.61401C16.4545 6.64515 14.5851 6.16071 12.7568 6.16071C10.9902 6.16071 9.55223 6.66621 8.44293 7.6772C7.35419 8.66713 6.80981 9.97299 6.80981 11.5948C6.80981 13.3219 7.3131 14.6699 8.31968 15.6387C9.32626 16.6076 10.5485 17.092 11.9865 17.092C13.0958 17.092 13.9483 16.8814 14.544 16.4602V9.66758H21.1998V19.6195C20.3575 20.5462 19.0942 21.3466 17.4097 22.0206C15.7252 22.6735 13.9175 23 11.9865 23Z" fill="black"/>
<path d="M31.2443 15.3228C32.1482 16.3127 33.2985 16.8077 34.6954 16.8077C36.0923 16.8077 37.2324 16.3127 38.1157 15.3228C39.0196 14.3118 39.4715 13.0375 39.4715 11.5C39.4715 9.96245 39.0196 8.69872 38.1157 7.70879C37.2324 6.6978 36.0923 6.19231 34.6954 6.19231C33.2985 6.19231 32.1482 6.6978 31.2443 7.70879C30.361 8.69872 29.9193 9.96245 29.9193 11.5C29.9193 13.0375 30.361 14.3118 31.2443 15.3228ZM42.9535 19.6511C40.776 21.8837 38.0233 23 34.6954 23C31.3675 23 28.6046 21.8732 26.4066 19.6195C24.2291 17.3658 23.1403 14.6593 23.1403 11.5C23.1403 8.3196 24.2291 5.6131 26.4066 3.38049C28.6046 1.12683 31.3675 0 34.6954 0C38.0233 0 40.776 1.12683 42.9535 3.38049C45.131 5.6131 46.2197 8.3196 46.2197 11.5C46.2197 14.6804 45.131 17.3974 42.9535 19.6511Z" fill="black"/>
<path d="M56.4007 15.3228C57.3046 16.3127 58.455 16.8077 59.8519 16.8077C61.2487 16.8077 62.3888 16.3127 63.2722 15.3228C64.176 14.3118 64.628 13.0375 64.628 11.5C64.628 9.96245 64.176 8.69872 63.2722 7.70879C62.3888 6.6978 61.2487 6.19231 59.8519 6.19231C58.455 6.19231 57.3046 6.6978 56.4007 7.70879C55.5174 8.69872 55.0757 9.96245 55.0757 11.5C55.0757 13.0375 55.5174 14.3118 56.4007 15.3228ZM68.1099 19.6511C65.9324 21.8837 63.1797 23 59.8519 23C56.524 23 53.761 21.8732 51.563 19.6195C49.3855 17.3658 48.2967 14.6593 48.2967 11.5C48.2967 8.3196 49.3855 5.6131 51.563 3.38049C53.761 1.12683 56.524 0 59.8519 0C63.1797 0 65.9324 1.12683 68.1099 3.38049C70.2874 5.6131 71.3762 8.3196 71.3762 11.5C71.3762 14.6804 70.2874 17.3974 68.1099 19.6511Z" fill="black"/>
<path d="M88.6443 13.9011L95.0844 22.5577H87.3501L81.6188 14.6593H80.6944V22.5577H74.0695V0.442308H84.4845C86.929 0.442308 88.8908 1.1163 90.3699 2.46429C91.8489 3.79121 92.5884 5.48672 92.5884 7.55082C92.5884 8.94094 92.2392 10.1941 91.5408 11.3104C90.8423 12.4057 89.8768 13.2692 88.6443 13.9011ZM80.6944 9.69918H83.7141C84.3304 9.69918 84.8234 9.54121 85.1932 9.22528C85.5835 8.88828 85.7786 8.44597 85.7786 7.89835C85.7786 7.35073 85.5835 6.91896 85.1932 6.60302C84.8234 6.28709 84.3304 6.12912 83.7141 6.12912H80.6944V9.69918Z" fill="black"/>
<path d="M96.3973 22.5577V0.442308H113.314V6.28709H103.022V8.24588H111.095V13.6168H103.022V16.7129H113.499V22.5577H96.3973Z" fill="black"/>
<path d="M115.987 22.5577V0.442308H132.904V6.28709H122.612V8.24588H130.685V13.6168H122.612V16.7129H133.088V22.5577H115.987Z" fill="black"/>
<path d="M135.576 22.5577V0.442308H142.201V16.7129H152V22.5577H135.576Z" fill="black"/>
</svg>
