<svg width="15" height="18" viewBox="0 0 15 18" fill="none" xmlns="http://www.w3.org/2000/svg">
<path d="M8.66732 10.2501V5.66675C8.66732 4.78269 8.31613 3.93485 7.69101 3.30973C7.06588 2.6846 6.21804 2.33341 5.33398 2.33341C4.44993 2.33341 3.60208 2.6846 2.97696 3.30973C2.35184 3.93485 2.00065 4.78269 2.00065 5.66675V10.2501C2.00065 11.6867 2.57133 13.0644 3.58716 14.0802C4.60298 15.0961 5.98073 15.6667 7.41732 15.6667C8.85391 15.6667 10.2317 15.0961 11.2475 14.0802C12.2633 13.0644 12.834 11.6867 12.834 10.2501V2.33341H14.5006V10.2501C14.5006 12.1287 13.7544 13.9304 12.426 15.2588C11.0976 16.5871 9.29593 17.3334 7.41732 17.3334C5.5387 17.3334 3.73703 16.5871 2.40864 15.2588C1.08026 13.9304 0.333984 12.1287 0.333984 10.2501V5.66675C0.333984 4.34067 0.860769 3.0689 1.79845 2.13121C2.73613 1.19353 4.0079 0.666748 5.33398 0.666748C6.66007 0.666748 7.93184 1.19353 8.86952 2.13121C9.8072 3.0689 10.334 4.34067 10.334 5.66675V10.2501C10.334 11.0236 10.0267 11.7655 9.47971 12.3125C8.93273 12.8595 8.19086 13.1667 7.41732 13.1667C6.64377 13.1667 5.9019 12.8595 5.35492 12.3125C4.80794 11.7655 4.50065 11.0236 4.50065 10.2501V5.66675H6.16732V10.2501C6.16732 10.5816 6.29901 10.8995 6.53343 11.134C6.76785 11.3684 7.0858 11.5001 7.41732 11.5001C7.74884 11.5001 8.06678 11.3684 8.3012 11.134C8.53562 10.8995 8.66732 10.5816 8.66732 10.2501Z" fill="#1E1E1E"/>
</svg>
