<svg width="14" height="14" viewBox="0 0 14 14" fill="none" xmlns="http://www.w3.org/2000/svg">
<path d="M3.66665 2.83317V0.833171C3.66665 0.65636 3.73688 0.48679 3.86191 0.361766C3.98693 0.236742 4.1565 0.166504 4.33331 0.166504H9.66665C9.84346 0.166504 10.013 0.236742 10.1381 0.361766C10.2631 0.48679 10.3333 0.65636 10.3333 0.833171V2.83317H13C13.1768 2.83317 13.3464 2.90341 13.4714 3.02843C13.5964 3.15346 13.6666 3.32303 13.6666 3.49984V12.8332C13.6666 13.01 13.5964 13.1796 13.4714 13.3046C13.3464 13.4296 13.1768 13.4998 13 13.4998H0.99998C0.823169 13.4998 0.653599 13.4296 0.528575 13.3046C0.403551 13.1796 0.333313 13.01 0.333313 12.8332V3.49984C0.333313 3.32303 0.403551 3.15346 0.528575 3.02843C0.653599 2.90341 0.823169 2.83317 0.99998 2.83317H3.66665ZM1.66665 10.1665V12.1665H12.3333V10.1665H1.66665ZM1.66665 8.83317H12.3333V4.1665H1.66665V8.83317ZM4.99998 1.49984V2.83317H8.99998V1.49984H4.99998ZM6.33331 6.83317H7.66665V8.1665H6.33331V6.83317Z" fill="#1E1E1E"/>
</svg>
