<svg width="94" height="73" viewBox="0 0 94 73" fill="none" xmlns="http://www.w3.org/2000/svg">
<path d="M27.8828 1.57982L27.5825 1.38614L27.302 1.60752C19.3902 7.85193 12.9227 15.8486 7.89685 25.5881L7.89683 25.5881L7.89495 25.5919C2.96902 35.3367 0.5 45.1922 0.5 55.1535V72V72.5H1H29.1412H29.6412V72V52.2543C29.9457 38.1406 34.7973 24.9797 44.2195 12.7618L44.5516 12.3311L44.0945 12.0363L27.8828 1.57982ZM76.0592 1.57982L75.759 1.38614L75.4785 1.60752C67.5667 7.85193 61.0991 15.8486 56.0733 25.5881L56.0714 25.5919C51.1455 35.3367 48.6765 45.1922 48.6765 55.1535V72V72.5H49.1765H77.3176H77.8176V72V52.2544C78.1221 38.1406 82.9737 24.9798 92.3959 12.7618L92.7281 12.3311L92.271 12.0363L76.0592 1.57982Z" fill="#1E1E1E" stroke="white"/>
</svg>
