<svg width="18" height="18" viewBox="0 0 18 18" fill="none" xmlns="http://www.w3.org/2000/svg">
<path d="M14.0252 12.8476L17.5943 16.4159L16.4152 17.5951L12.8469 14.0259C11.5191 15.0903 9.86768 15.6692 8.16602 15.6667C4.02602 15.6667 0.666016 12.3067 0.666016 8.16675C0.666016 4.02675 4.02602 0.666748 8.16602 0.666748C12.306 0.666748 15.666 4.02675 15.666 8.16675C15.6684 9.86842 15.0895 11.5199 14.0252 12.8476ZM12.3535 12.2292C13.4111 11.1417 14.0017 9.68377 13.9993 8.16675C13.9993 4.94341 11.3885 2.33341 8.16602 2.33341C4.94268 2.33341 2.33268 4.94341 2.33268 8.16675C2.33268 11.3892 4.94268 14.0001 8.16602 14.0001C9.68304 14.0025 11.1409 13.4118 12.2285 12.3542L12.3535 12.2292Z" fill="white"/>
</svg>
